<svg width="14" height="14" viewBox="0 0 14 14" fill="none" xmlns="http://www.w3.org/2000/svg">
<path d="M12.3281 3.34375V2C12.3281 1.77083 12.2135 1.65625 11.9844 1.65625H10.6719C10.4427 1.65625 10.3281 1.77083 10.3281 2V3.34375C10.3281 3.55208 10.4427 3.65625 10.6719 3.65625H11.9844C12.2135 3.65625 12.3281 3.55208 12.3281 3.34375ZM1.98438 12.3438H11.9844C12.2135 12.3438 12.3281 12.2292 12.3281 12V6.34375H10.9219C10.9635 6.59375 10.9844 6.8125 10.9844 7C10.9844 8.10417 10.5885 9.05208 9.79688 9.84375C9.02604 10.6146 8.08854 11 6.98438 11C5.88021 11 4.93229 10.6146 4.14062 9.84375C3.36979 9.05208 2.98438 8.10417 2.98438 7C2.98438 6.77083 3.00521 6.55208 3.04688 6.34375H1.67188V12C1.67188 12.2292 1.77604 12.3438 1.98438 12.3438ZM8.89062 5.125C8.36979 4.60417 7.73438 4.34375 6.98438 4.34375C6.25521 4.34375 5.63021 4.60417 5.10938 5.125C4.58854 5.64583 4.32812 6.27083 4.32812 7C4.32812 7.72917 4.58854 8.35417 5.10938 8.875C5.63021 9.39583 6.25521 9.65625 6.98438 9.65625C7.73438 9.65625 8.36979 9.39583 8.89062 8.875C9.41146 8.35417 9.67188 7.72917 9.67188 7C9.67188 6.27083 9.41146 5.64583 8.89062 5.125ZM12.3281 0.34375C12.7031 0.34375 13.0156 0.479167 13.2656 0.75C13.5365 1 13.6719 1.30208 13.6719 1.65625V12.3438C13.6719 12.6979 13.5365 13 13.2656 13.25C13.0156 13.5208 12.7031 13.6562 12.3281 13.6562H1.67188C1.29688 13.6562 0.973958 13.5208 0.703125 13.25C0.453125 13 0.328125 12.6979 0.328125 12.3438V1.65625C0.328125 1.30208 0.453125 1 0.703125 0.75C0.973958 0.479167 1.29688 0.34375 1.67188 0.34375H12.3281Z" fill="#172134" fill-opacity="0.55"/>
</svg>
