<svg width="61" height="61" viewBox="0 0 61 61" fill="none" xmlns="http://www.w3.org/2000/svg">
<path d="M15.409 9.39765H21.9693C22.1268 9.39046 22.2788 9.33807 22.4073 9.24674C22.5358 9.15541 22.6353 9.029 22.6938 8.88264C22.7523 8.73628 22.7674 8.57615 22.7374 8.42142C22.7073 8.26668 22.6333 8.12388 22.5242 8.0101L19.8765 5.35366C21.7061 3.88336 23.8181 2.80453 26.0818 2.18403C28.3454 1.56353 30.7124 1.41459 33.036 1.74644C35.3595 2.07829 37.5902 2.88385 39.5896 4.1132C41.5891 5.34255 43.3147 6.96948 44.6596 8.89314C44.7792 9.06365 44.9618 9.17963 45.1669 9.21556C45.3721 9.2515 45.5832 9.20445 45.7537 9.08477C45.9242 8.96509 46.0402 8.78257 46.0761 8.57738C46.1121 8.37218 46.065 8.16112 45.9453 7.99061C44.4692 5.87915 42.5729 4.09527 40.3752 2.75071C38.1776 1.40615 35.726 0.529883 33.174 0.176805C30.622 -0.176274 28.0246 0.00143998 25.5444 0.698815C23.0643 1.39619 20.7549 2.5982 18.7609 4.22955L15.9638 1.43341C15.8601 1.32413 15.7254 1.24926 15.5778 1.21886C15.4303 1.18846 15.2769 1.20399 15.1385 1.26337C14.9985 1.3244 14.8803 1.42624 14.7991 1.55557C14.718 1.6849 14.6777 1.83571 14.6837 1.98827V8.54914C14.6837 8.98248 14.9755 9.39765 15.409 9.39765ZM16.2533 3.88293L18.1548 5.81369C18.1561 5.81526 18.1423 5.81683 18.1436 5.8184C18.1651 5.84246 18.1805 5.89688 18.2041 5.91728L20.0745 7.82698H16.2533V3.88293Z" fill="#FF8E01"/>
<path d="M45.2902 51.515H38.7295C38.572 51.5222 38.4199 51.5746 38.2914 51.6659C38.163 51.7573 38.0635 51.8837 38.005 52.03C37.9465 52.1764 37.9313 52.3365 37.9614 52.4912C37.9915 52.646 38.0655 52.7888 38.1746 52.9026L40.8229 55.559C38.9934 57.0293 36.8813 58.1081 34.6177 58.7286C32.354 59.3491 29.9871 59.4981 27.6635 59.1662C25.34 58.8344 23.1093 58.0288 21.1099 56.7994C19.1104 55.5701 17.3848 53.9432 16.04 52.0195C15.9204 51.849 15.738 51.733 15.5328 51.697C15.3277 51.661 15.1167 51.708 14.9462 51.8276C14.7756 51.9472 14.6596 52.1296 14.6236 52.3347C14.5876 52.5399 14.6346 52.7509 14.7542 52.9214C16.2304 55.0329 18.1266 56.8168 20.3243 58.1613C22.5219 59.5059 24.9735 60.3822 27.5255 60.7353C30.0775 61.0883 32.6749 60.9106 35.155 60.2132C37.6351 59.5158 39.9445 58.3138 41.9385 56.6825L44.7353 59.4792C44.8451 59.589 44.9849 59.6637 45.1371 59.694C45.2893 59.7242 45.4471 59.7087 45.5905 59.6493C45.7339 59.5899 45.8564 59.4894 45.9427 59.3603C46.0289 59.2313 46.075 59.0796 46.075 58.9244V52.3635C46.075 51.9302 45.7235 51.515 45.2902 51.515ZM44.5054 57.0297L42.5735 55.0978C42.5724 55.0965 42.5715 55.095 42.5703 55.0937C42.5491 55.0698 42.5265 55.0162 42.5031 54.9955L40.6241 53.0846H44.5054V57.0297Z" fill="white"/>
<path d="M24.6243 48.2829V44.2267C24.6243 44.2049 24.5944 44.1832 24.5927 44.1613C24.5136 43.2789 24.2104 42.4313 23.712 41.6989C23.2137 40.9664 22.5365 40.3733 21.7448 39.9757C21.7149 39.962 21.6844 39.9499 21.6532 39.9394L17.4694 38.4318C18.1345 38.1878 18.7343 37.7935 19.2221 37.2797C19.7099 36.7659 20.0725 36.1465 20.2816 35.4696C20.6675 35.488 21.0542 35.4583 21.4327 35.3811C22.4728 35.1673 23.4073 34.601 24.0782 33.7779C24.7491 32.9548 25.1154 31.9254 25.1152 30.8635C25.1152 29.4709 24.2852 28.1821 23.297 27.318C23.6041 26.8521 23.7678 26.3064 23.7679 25.7484C23.768 25.5177 23.7403 25.2878 23.6856 25.0637C23.5768 24.6259 23.3451 24.2284 23.018 23.9179C22.6908 23.6074 22.2818 23.3968 21.839 23.3109L21.9959 21.0369C22.1307 19.0872 21.6582 17.1437 20.6435 15.4734C19.6287 13.8032 18.1216 12.4882 16.3291 11.7094C14.5367 10.9305 12.5471 10.7259 10.6337 11.1237C8.72025 11.5216 6.97704 12.5023 5.64366 13.9311C4.75391 14.8761 4.07028 15.9956 3.63615 17.2188C3.20202 18.4419 3.02687 19.742 3.12181 21.0364L3.27877 23.3189C2.83538 23.4019 2.42514 23.6104 2.09674 23.9197C1.76833 24.2289 1.53558 24.6259 1.4261 25.0635C1.37143 25.2877 1.34386 25.5176 1.34395 25.7483C1.34374 26.2735 1.48859 26.7885 1.76252 27.2367C1.15655 27.713 0.679575 28.3335 0.375141 29.0416C0.0707077 29.7497 -0.0514793 30.5228 0.0197389 31.2903C0.0909571 32.0577 0.353311 32.7951 0.782841 33.4351C1.21237 34.0751 1.79539 34.5973 2.47866 34.9539C2.85914 35.153 3.26566 35.2977 3.68635 35.3839C4.06546 35.4609 4.45267 35.4906 4.8391 35.4722C5.04899 36.1518 5.41345 36.7736 5.90391 37.2887C6.39436 37.8039 6.99749 38.1984 7.66598 38.4414L3.5129 39.9396C3.48401 39.95 3.45576 39.9621 3.42827 39.9758C2.63614 40.3733 1.95853 40.9663 1.45955 41.6987C0.960577 42.4312 0.656743 43.2788 0.576803 44.1615C0.575103 44.1832 0.55666 44.2049 0.55666 44.2269V48.283C0.556791 48.7164 0.943178 49.0303 1.37665 49.0303H23.7818C24.2151 49.0303 24.6243 48.7164 24.6243 48.2829ZM18.6074 44.2267V47.4607H6.44286V44.2267C6.44286 44.205 6.46902 44.1832 6.46758 44.1613C6.3711 42.9929 5.88003 41.8921 5.07506 41.0398L9.55044 39.4335L11.8057 42.4404V45.0488C11.8057 45.257 11.8884 45.4566 12.0356 45.6038C12.1828 45.7509 12.3824 45.8336 12.5905 45.8336C12.7987 45.8336 12.9983 45.7509 13.1455 45.6038C13.2926 45.4566 13.3753 45.257 13.3753 45.0488V42.4404L15.599 39.4204L20.0785 41.04C19.2608 41.8884 18.7542 42.9886 18.6411 44.1615C18.6392 44.1832 18.6074 44.2049 18.6074 44.2267ZM12.5934 36.5487C13.2521 36.5472 13.9089 36.4758 14.5525 36.3357V38.2381L12.5905 40.864L10.6285 38.2381V36.3344C11.274 36.4755 11.9327 36.5475 12.5934 36.5491V36.5487ZM21.911 33.5604C21.661 33.6913 21.3938 33.7864 21.1173 33.8431C20.6955 33.9286 20.2605 33.925 19.8402 33.8325C19.7338 33.8088 19.6236 33.8076 19.5167 33.8289C19.4098 33.8503 19.3085 33.8936 19.2192 33.9562C19.13 34.0188 19.0548 34.0994 18.9984 34.1927C18.942 34.286 18.9057 34.39 18.8918 34.4981C18.8189 35.0534 18.5943 35.5779 18.2427 36.0139C17.891 36.4499 17.4259 36.7804 16.8986 36.9691C16.7732 37.0167 16.6444 37.055 16.5133 37.0834C16.3842 37.1097 16.2536 37.1272 16.1222 37.1357V35.8338C17.1201 35.3789 18.0373 34.7643 18.8375 34.0143C20.3362 32.5633 21.2788 30.6327 21.5011 28.5585C21.7067 28.5138 21.9066 28.4461 22.097 28.3566C22.8672 28.9655 23.5482 29.9346 23.5482 30.8634C23.5484 31.4198 23.3959 31.9656 23.1072 32.4412C22.8185 32.9169 22.4047 33.3042 21.911 33.5608V33.5604ZM6.79105 15.0021C7.9032 13.8107 9.35707 12.9929 10.9528 12.6611C12.5486 12.3294 14.208 12.5001 15.7028 13.1496C17.1977 13.7991 18.4547 14.8957 19.3011 16.2886C20.1475 17.6815 20.5417 19.3023 20.4296 20.9284L20.272 23.2137C18.8097 22.9959 17.7175 22.4194 17.0214 21.4917C15.5659 19.5519 16.2057 16.639 16.212 16.6111C16.252 16.4386 16.2325 16.2576 16.1566 16.0976C16.0807 15.9376 15.9529 15.808 15.794 15.7298C15.6352 15.6516 15.4545 15.6294 15.2814 15.6669C15.1083 15.7044 14.953 15.7993 14.8407 15.9362L12.6388 18.6189L12.6305 18.6291C12.0462 19.37 11.301 19.9684 10.4514 20.3791C9.60185 20.7897 8.67004 21.0019 7.72641 20.9995C6.65017 21.001 5.6061 21.3666 4.76402 22.0368L4.68763 20.929C4.6084 19.8493 4.75447 18.7649 5.11657 17.7446C5.47867 16.7243 6.04889 15.7904 6.79105 15.0021ZM2.95046 25.4368C2.99454 25.2623 3.09728 25.1082 3.24145 25.0005C3.38562 24.8927 3.56246 24.8377 3.74233 24.8448C3.79681 24.838 3.8518 24.8361 3.90662 24.8392C3.95552 24.8414 4.00452 24.839 4.05298 24.832H4.11459C4.11577 24.832 4.11708 24.8531 4.11812 24.8531C4.11917 24.8531 4.12362 24.863 4.12636 24.863C4.15645 24.8643 4.18658 24.8638 4.21662 24.8617C4.22669 24.8605 4.2365 24.8617 4.24644 24.8597C4.27129 24.8555 4.29588 24.8516 4.31995 24.8452C4.32819 24.843 4.3363 24.8418 4.34428 24.8395C4.37579 24.8303 4.40668 24.819 4.43675 24.8058C4.44146 24.8038 4.44604 24.8013 4.45075 24.799C4.47602 24.7873 4.50065 24.7742 4.52452 24.7598C4.53276 24.7548 4.541 24.7496 4.54911 24.7442C4.57171 24.7295 4.59354 24.7137 4.61451 24.6968C4.61974 24.6924 4.62524 24.6888 4.63047 24.6843C4.65238 24.6656 4.67326 24.6457 4.69299 24.6247C4.69587 24.6215 4.69823 24.6181 4.7011 24.6151C4.70673 24.6089 4.71196 24.6021 4.71745 24.5955C4.73498 24.5746 4.75144 24.5527 4.76677 24.5301C4.77134 24.5233 4.77618 24.517 4.77985 24.5097C4.79877 24.4803 4.81573 24.4498 4.8306 24.4181L4.8319 24.4159C5.08773 23.8639 5.49625 23.3966 6.00917 23.0694C6.52209 22.7421 7.11798 22.5685 7.72641 22.5691C8.90548 22.5722 10.0698 22.3076 11.1317 21.795C12.1935 21.2825 13.1251 20.5355 13.8562 19.6104L14.5171 18.8052C14.5956 19.9432 14.9051 21.2821 15.7589 22.425C16.8618 23.9015 18.6091 24.7213 20.9517 24.862C20.9601 24.862 20.9684 24.8467 20.9767 24.8469C20.9851 24.8472 20.9914 24.8327 20.9987 24.8327H21.0582C21.1067 24.8377 21.1555 24.8383 21.2041 24.8344C21.4095 24.7911 21.6237 24.8289 21.8019 24.9398C21.9801 25.0508 22.1085 25.2263 22.1603 25.4298C22.1852 25.5338 22.1977 25.6405 22.1976 25.7475C22.1973 26.0933 22.0602 26.425 21.8162 26.6701C21.5722 26.9152 21.2412 27.0538 20.8954 27.0556H20.7541C20.5506 27.055 20.3548 27.1336 20.2083 27.2749C20.0617 27.4162 19.976 27.609 19.9693 27.8124C19.9047 29.7349 19.0956 31.557 17.7128 32.8941C16.33 34.2312 14.4817 34.9786 12.5582 34.9786C10.6347 34.9786 8.78645 34.2312 7.40366 32.8941C6.02087 31.557 5.21176 29.7349 5.14714 27.8124C5.14044 27.609 5.05474 27.4161 4.90823 27.2748C4.76171 27.1335 4.5659 27.0547 4.36233 27.0554H4.21596C3.8704 27.0544 3.5393 26.9166 3.29519 26.672C3.05107 26.4274 2.91385 26.0961 2.91357 25.7505C2.91332 25.6448 2.9257 25.5395 2.95046 25.4368ZM6.22821 34.5006C6.21423 34.3925 6.17789 34.2885 6.1215 34.1952C6.0651 34.1019 5.9899 34.0214 5.90067 33.9588C5.81144 33.8962 5.71015 33.8528 5.60325 33.8315C5.49635 33.8102 5.38618 33.8114 5.27977 33.8351C4.8589 33.9275 4.42338 33.931 4.00105 33.8455C3.41133 33.724 2.87086 33.4304 2.44793 33.0019C2.02501 32.5733 1.7386 32.029 1.62491 31.4377C1.51122 30.8464 1.57535 30.2347 1.80918 29.6798C2.04302 29.125 2.43608 28.6519 2.93868 28.3204C3.1572 28.4294 3.38883 28.5099 3.62788 28.5598C3.85912 30.6358 4.80946 32.5655 6.31415 34.0143C7.10226 34.7929 8.03455 35.4104 9.05888 35.8324V37.1404C8.91994 37.1319 8.78167 37.1146 8.6449 37.0888C8.50403 37.0603 8.36531 37.022 8.22973 36.9743C7.70033 36.7867 7.23316 36.4563 6.87994 36.0196C6.52673 35.5829 6.30125 35.057 6.22847 34.5001L6.22821 34.5006ZM2.12641 44.2611C2.23426 43.2754 2.72806 42.3724 3.49982 41.7497C4.27875 42.3534 4.87324 43.2661 4.87324 44.2611V47.4607H2.12641V44.2611ZM23.0546 47.4607H20.177V44.261C20.3098 43.2679 20.8263 42.3664 21.6158 41.7496C22.4055 42.3663 22.922 43.2679 23.0546 44.261V47.4607Z" fill="white"/>
<path d="M58.3417 38.179C58.3142 38.1659 58.2678 38.1528 58.2389 38.1427L55.2316 37.0641V36.0584C55.2352 35.9179 55.2002 35.779 55.1303 35.657C55.0604 35.535 54.9584 35.4345 54.8354 35.3665C54.815 35.3545 54.794 35.3437 54.7725 35.334L54.7776 35.3327L53.2551 34.7049C54.638 34.0707 55.8245 33.0756 56.69 31.8243C57.5554 30.573 58.0678 29.1116 58.1732 27.5939C58.7602 27.3331 59.237 26.8744 59.5203 26.2979C59.8036 25.7214 59.8755 25.0638 59.7233 24.4397C59.6445 24.11 59.4915 23.8026 59.276 23.5408C59.0605 23.2791 58.7882 23.07 58.4797 22.9294L58.6175 20.9297C58.7014 19.7139 58.5343 18.494 58.1267 17.3455C57.7191 16.1971 57.0796 15.1448 56.2481 14.254C55.4166 13.3631 54.4108 12.6528 53.2931 12.1672C52.1755 11.6815 50.9699 11.4309 49.7513 11.4309C48.5327 11.4309 47.3271 11.6815 46.2094 12.1672C45.0918 12.6528 44.0859 13.3631 43.2544 14.254C42.4229 15.1448 41.7835 16.1971 41.3759 17.3455C40.9683 18.494 40.8012 19.7139 40.885 20.9297L41.0228 22.9269C40.7129 23.067 40.4392 23.2762 40.2227 23.5384C40.0062 23.8006 39.8526 24.1089 39.7737 24.4397C39.6212 25.0642 39.6932 25.7225 39.977 26.2993C40.2609 26.8761 40.7385 27.3347 41.3264 27.5949C41.4312 29.1145 41.9444 30.5776 42.8118 31.8297C43.6792 33.0818 44.8685 34.0765 46.2543 34.7088L44.7591 35.3246L44.7622 35.3325C44.7371 35.3428 44.6968 35.3531 44.6732 35.3661C44.5462 35.4323 44.4393 35.5315 44.3638 35.6532C44.2884 35.775 44.2471 35.9148 44.2443 36.058V37.0638L41.2697 38.1423C41.2432 38.1528 41.2173 38.1649 41.1923 38.1786C40.445 38.554 39.8059 39.1139 39.3356 39.8054C38.8652 40.4968 38.5791 41.2969 38.5044 42.1298C38.5026 42.1515 38.489 42.1733 38.489 42.1952V47.9476C38.495 48.1629 38.5829 48.3678 38.7348 48.5204C38.8868 48.673 39.0913 48.7619 39.3065 48.7688H47.0198L49.2078 51.6681C49.2826 51.7628 49.3778 51.8394 49.4863 51.8922C49.5949 51.945 49.7139 51.9726 49.8345 51.973C49.9552 51.9735 50.0744 51.9467 50.1833 51.8947C50.2922 51.8427 50.388 51.7668 50.4635 51.6727L52.6515 48.7688H60.2348C60.6681 48.7688 60.9869 48.3812 60.9869 47.9479V42.1955C60.9869 42.1736 61.0023 42.1519 60.9999 42.1301C60.9311 41.2993 60.6507 40.5 60.1853 39.8084C59.72 39.1167 59.0853 38.5558 58.3417 38.179ZM54.97 42.1955V47.1992H52.828L51.7714 41.4872C51.8819 41.5411 52.0036 41.5677 52.1265 41.565C52.2487 41.5642 52.369 41.535 52.478 41.4798C52.5869 41.4245 52.6815 41.3446 52.7543 41.2465L54.7712 38.5558L56.3392 39.1205C55.5435 39.9328 55.0564 40.9975 54.9621 42.1307C54.9603 42.1525 54.97 42.1736 54.97 42.1955ZM44.6367 47.1992V42.1955C44.6367 42.1736 44.6236 42.1519 44.6223 42.1301C44.5217 40.9925 44.0272 39.9256 43.224 39.1137L44.7735 38.5535L46.7885 41.2421C46.9086 41.4025 47.0856 41.5109 47.2832 41.5447C47.4808 41.5786 47.6838 41.5355 47.8505 41.4242L47.9189 41.3964L46.8434 47.1992H44.6367ZM51.1854 39.2003L53.4629 37.6821L51.9446 39.7063L51.1854 39.2003ZM51.5692 37.059L49.7999 38.2571L48.0375 37.0635V35.2792C48.6097 35.4071 49.1944 35.4705 49.7807 35.4682C50.3826 35.4714 50.9827 35.4045 51.5692 35.269V37.059ZM48.3559 39.2003L47.5972 39.7063L46.0784 37.6821L48.3559 39.2003ZM44.4019 15.3252C45.4334 14.2201 46.7819 13.4616 48.2621 13.1539C49.7422 12.8463 51.2812 13.0045 52.6677 13.607C54.0542 14.2095 55.2201 15.2266 56.0052 16.5185C56.7902 17.8105 57.1558 19.3138 57.0518 20.822L56.9655 22.0731L56.3303 19.4541C56.3202 19.4123 56.3066 19.3714 56.2898 19.3318C55.9946 18.6444 55.5121 18.0538 54.8973 17.6276C54.2826 17.2013 53.5603 16.9564 52.8131 16.921L52.065 16.8879C51.9341 16.8823 51.8039 16.9095 51.6862 16.967C51.5685 17.0245 51.4669 17.1105 51.3909 17.2171C50.7088 18.175 49.7841 18.9341 48.7118 19.4166C47.6394 19.899 46.458 20.0875 45.2887 19.9625L44.0312 19.8273C43.8852 19.8115 43.7375 19.8252 43.5969 19.8676C43.4562 19.9099 43.3255 19.98 43.2124 20.0737C43.0994 20.1674 43.0062 20.2829 42.9385 20.4132C42.8708 20.5435 42.8299 20.6861 42.8183 20.8325L42.6246 23.2531L42.6187 23.2509L42.4511 20.822C42.3777 19.8206 42.5132 18.8149 42.849 17.8687C43.1849 16.9224 43.7137 16.0563 44.4019 15.3252ZM42.8769 27.0125C42.8769 26.8278 42.8118 26.649 42.693 26.5076C42.5742 26.3662 42.4093 26.2713 42.2274 26.2394C42.0705 26.2114 41.9209 26.1516 41.788 26.0635C41.655 25.9755 41.5416 25.8611 41.4545 25.7275C41.3675 25.5939 41.3088 25.4439 41.282 25.2867C41.2552 25.1296 41.2609 24.9686 41.2988 24.8137C41.3335 24.6607 41.4216 24.5252 41.5473 24.4313C41.6321 24.5058 41.7257 24.5698 41.8259 24.6218C41.8476 24.6329 41.8698 24.6431 41.8925 24.6521C43.0371 25.1109 43.3815 25.1658 43.7368 24.9462C43.8432 24.88 43.9327 24.7898 43.998 24.6828C44.0633 24.5758 44.1027 24.455 44.113 24.3301L44.3442 21.4394L45.1208 21.523C46.494 21.6695 47.882 21.4668 49.156 20.9338C50.43 20.4008 51.5488 19.5547 52.4086 18.474L52.7438 18.4888C53.1853 18.5097 53.6126 18.6516 53.9789 18.899C54.3453 19.1463 54.6366 19.4896 54.8211 19.8912L56.002 24.7587C56.0343 24.8919 56.101 25.0143 56.1953 25.1137C56.2896 25.2132 56.4083 25.2862 56.5395 25.3255C56.6708 25.3648 56.8101 25.3691 56.9435 25.3378C57.077 25.3066 57.1999 25.241 57.3001 25.1475L57.9451 24.5458C57.967 24.5253 57.9871 24.5032 58.0077 24.4816C58.1028 24.571 58.1693 24.6865 58.1991 24.8135C58.2212 24.9048 58.2324 24.9983 58.2323 25.0922C58.2329 25.3656 58.1371 25.6306 57.9616 25.8404C57.7861 26.0501 57.5423 26.1913 57.273 26.239C57.0905 26.2739 56.9259 26.3714 56.8076 26.5147C56.6894 26.658 56.6248 26.838 56.625 27.0238C56.6235 28.8469 55.8978 30.5947 54.6076 31.8828C53.3173 33.1708 51.5683 33.8936 49.7452 33.892C47.9221 33.8905 46.1743 33.1648 44.8862 31.8745C43.5982 30.5843 42.8753 28.8356 42.8769 27.0125ZM40.0586 42.2299C40.1195 41.7373 40.2853 41.2635 40.5447 40.8404C40.8042 40.4172 41.1514 40.0547 41.5628 39.7771C41.9743 40.0547 42.3214 40.4173 42.5809 40.8404C42.8404 41.2635 43.0062 41.7373 43.0671 42.2299V47.1992H40.0586V42.2299ZM49.8356 49.8712L48.3138 47.8421L49.7406 40.164L49.7706 40.144L49.9514 40.2645L51.3575 47.8426L49.8356 49.8712ZM59.4172 47.1992H56.5396V42.2299C56.6704 41.2358 57.1544 40.3313 57.9784 39.7839C58.8025 40.3314 59.4172 41.2358 59.4172 42.2299V47.1992Z" fill="white"/>
</svg>
