<svg width="91" height="81" viewBox="0 0 91 81" fill="none" xmlns="http://www.w3.org/2000/svg">
<circle opacity="0.5" cx="51" cy="40.1399" r="40" fill="#F0F5F8"/>
<path d="M30.2594 32.035C28.4739 32.0371 26.7621 32.747 25.4995 34.0091C24.2369 35.2712 23.5267 36.9824 23.5247 38.7673V41.7762C23.5322 43.5569 24.245 45.262 25.5072 46.5185C26.7694 47.7749 28.4781 48.4804 30.2594 48.4804C32.0407 48.4804 33.7494 47.7749 35.0116 46.5185C36.2738 45.262 36.9866 43.5569 36.9941 41.7762V38.7673C36.9921 36.9824 36.2819 35.2712 35.0193 34.0091C33.7568 32.747 32.045 32.0371 30.2594 32.035ZM35.5644 41.7762C35.5578 43.1784 34.9959 44.5208 34.0018 45.5099C33.0076 46.4991 31.662 47.0543 30.2594 47.0543C28.8567 47.0543 27.5112 46.4991 26.517 45.5099C25.5228 44.5208 24.961 43.1784 24.9543 41.7762V38.7673C24.961 37.3652 25.5228 36.0228 26.517 35.0336C27.5112 34.0445 28.8567 33.4892 30.2594 33.4892C31.662 33.4892 33.0076 34.0445 34.0018 35.0336C34.9959 36.0228 35.5578 37.3652 35.5644 38.7673V41.7762Z" fill="#172134"/>
<path d="M19.0837 67.3148H41.4352C41.6248 67.3148 41.8066 67.2395 41.9407 67.1055C42.0747 66.9715 42.1501 66.7897 42.1501 66.6002V64.3059H57.6503C57.8398 64.3059 58.0217 64.2306 58.1557 64.0966C58.2898 63.9625 58.3651 63.7808 58.3651 63.5913V57.6647C58.3639 55.9756 57.7195 54.3504 56.5628 53.1192C55.4062 51.888 53.824 51.1432 52.1377 51.0361C51.7565 51.0079 51.5669 51.2395 51.3662 51.4844C50.943 52.0014 50.4073 52.415 49.7999 52.6937C49.1925 52.9723 48.5295 53.1087 47.8615 53.0923C47.1934 53.076 46.5379 52.9074 45.9449 52.5994C45.3518 52.2914 44.837 51.8521 44.4396 51.315C44.3713 51.2227 44.2818 51.1482 44.1786 51.0978C44.0755 51.0473 43.9617 51.0225 43.8469 51.0253C42.6368 51.0521 41.4576 51.4125 40.4394 52.0667C39.7868 51.2716 38.9769 50.6198 38.0607 50.152C37.1444 49.6842 36.1414 49.4105 35.1144 49.348C34.7405 49.3274 34.5618 49.5474 34.3346 49.8244C33.8412 50.4271 33.2168 50.9092 32.5089 51.234C31.8009 51.5588 31.0281 51.7177 30.2494 51.6987C29.4706 51.6796 28.7065 51.4831 28.0153 51.1241C27.3241 50.765 26.724 50.253 26.2608 49.6269C26.1921 49.535 26.1025 49.4608 25.9994 49.4104C25.8964 49.36 25.7828 49.3349 25.668 49.3372C23.7167 49.3824 21.8611 50.1915 20.5005 51.5904C20.3482 51.7464 20.2046 51.9088 20.0676 52.0754C19.1172 51.4633 18.0254 51.1055 16.897 51.0364C16.5158 51.0081 16.3263 51.2398 16.1255 51.4846C15.7023 52.0017 15.1666 52.4152 14.5592 52.6939C13.9519 52.9725 13.2889 53.1089 12.6208 53.0926C11.9527 53.0762 11.2972 52.9076 10.7042 52.5996C10.1112 52.2916 9.59639 51.8524 9.19898 51.3153C9.13059 51.2231 9.04105 51.1486 8.93788 51.0982C8.83472 51.0478 8.72094 51.0228 8.60614 51.0255C6.87387 51.0697 5.22737 51.7885 4.01764 53.0287C2.80791 54.2689 2.13065 55.9325 2.13025 57.6647V63.5913C2.13025 63.7808 2.20556 63.9625 2.33962 64.0966C2.47368 64.2306 2.6555 64.3059 2.84509 64.3059H18.3691V66.6002C18.3691 66.7897 18.4444 66.9714 18.5784 67.1054C18.7124 67.2394 18.8942 67.3147 19.0837 67.3148ZM43.5341 52.474C44.079 53.1145 44.7564 53.6293 45.5194 53.983C46.2825 54.3367 47.1132 54.5208 47.9544 54.5228C48.7955 54.5247 49.627 54.3443 50.3917 53.9941C51.1564 53.6439 51.836 53.1321 52.3839 52.4941C53.6412 52.6567 54.7963 53.271 55.6338 54.2224C56.4712 55.1738 56.9338 56.3974 56.9351 57.6647V62.8767H42.1497V56.8204C42.1503 55.5731 41.8373 54.3458 41.2395 53.251C41.9315 52.8129 42.7182 52.5465 43.5341 52.474ZM25.3533 50.7845C25.9663 51.5168 26.7321 52.1061 27.5971 52.5111C28.4621 52.9162 29.4053 53.1271 30.3605 53.1291C31.3157 53.1311 32.2598 52.9241 33.1265 52.5228C33.9932 52.1214 34.7615 51.5352 35.3776 50.8055C36.8496 50.9823 38.2058 51.6917 39.1902 52.7998C40.1745 53.9079 40.7189 55.338 40.7205 56.82V65.8852H19.7986V56.8204C19.799 55.3014 20.3701 53.838 21.3989 52.7201C22.4276 51.6022 23.8389 50.9113 25.3531 50.7845H25.3533ZM3.55994 62.8767V57.6647C3.56032 56.3654 4.04593 55.113 4.92166 54.1529C5.79739 53.1928 7.00015 52.5941 8.29435 52.4741C8.83928 53.1146 9.5166 53.6294 10.2797 53.983C11.0427 54.3367 11.8734 54.5208 12.7145 54.5227C13.5556 54.5247 14.3871 54.3443 15.1518 53.9941C15.9165 53.6439 16.5961 53.1322 17.144 52.4942C17.9001 52.5903 18.6257 52.8518 19.2691 53.2602C18.6765 54.3532 18.367 55.5771 18.3689 56.8204V62.8767H3.55994Z" fill="#fff"/>
<path d="M53.8516 44.4963V41.8627C53.8516 41.0771 53.6968 40.2993 53.3961 39.5735C53.0953 38.8477 52.6546 38.1883 52.0989 37.6328C51.5432 37.0773 50.8835 36.6367 50.1575 36.3361C49.4315 36.0355 48.6533 35.8807 47.8675 35.8807C47.0817 35.8807 46.3035 36.0355 45.5775 36.3361C44.8515 36.6367 44.1918 37.0773 43.6361 37.6328C43.0804 38.1883 42.6397 38.8477 42.3389 39.5735C42.0382 40.2993 41.8834 41.0771 41.8834 41.8627V44.4963C41.8834 46.0829 42.5139 47.6044 43.6361 48.7262C44.7584 49.8481 46.2804 50.4783 47.8675 50.4783C49.4546 50.4783 50.9767 49.8481 52.0989 48.7262C53.2211 47.6044 53.8516 46.0829 53.8516 44.4963ZM43.3131 44.4963V41.8627C43.3131 40.6552 43.7929 39.4972 44.6471 38.6434C45.5012 37.7896 46.6596 37.3099 47.8675 37.3099C49.0754 37.3099 50.2338 37.7896 51.0879 38.6434C51.9421 39.4972 52.4219 40.6552 52.4219 41.8627V44.4963C52.4205 45.7034 51.9403 46.8606 51.0865 47.7141C50.2326 48.5677 49.075 49.0478 47.8675 49.0491C46.66 49.0478 45.5023 48.5677 44.6485 47.7142C43.7946 46.8607 43.3144 45.7034 43.313 44.4963H43.3131Z" fill="#172134"/>
<path d="M18.6113 44.4963V41.8627C18.6113 40.2762 17.9809 38.7547 16.8586 37.6328C15.7364 36.511 14.2143 35.8807 12.6273 35.8807C11.0402 35.8807 9.51812 36.511 8.39588 37.6328C7.27365 38.7547 6.64319 40.2762 6.64319 41.8627V44.4963C6.64319 46.0829 7.27365 47.6044 8.39588 48.7262C9.51812 49.8481 11.0402 50.4783 12.6273 50.4783C14.2143 50.4783 15.7364 49.8481 16.8586 48.7262C17.9809 47.6044 18.6113 46.0829 18.6113 44.4963ZM8.07288 44.4963V41.8627C8.07288 40.6552 8.55271 39.4972 9.40683 38.6434C10.2609 37.7896 11.4194 37.3099 12.6273 37.3099C13.8352 37.3099 14.9936 37.7896 15.8477 38.6434C16.7018 39.4972 17.1817 40.6552 17.1817 41.8627V44.4963C17.1803 45.7034 16.7 46.8606 15.8462 47.7141C14.9924 48.5677 13.8348 49.0478 12.6273 49.0491C11.4198 49.0478 10.2621 48.5677 9.40832 47.7141C8.5545 46.8606 8.07423 45.7034 8.07288 44.4963Z" fill="#172134"/>
<path d="M59.3465 31.0528V23.6091C59.3457 22.8785 59.055 22.178 58.5382 21.6613C58.0214 21.1447 57.3206 20.8541 56.5897 20.8533H37.8717C37.1408 20.8541 36.44 21.1447 35.9232 21.6613C35.4064 22.178 35.1157 22.8785 35.1149 23.6091V31.0528C35.1157 31.7834 35.4064 32.4839 35.9232 33.0005C36.44 33.5172 37.1408 33.8078 37.8717 33.8086L38.7021 33.8104C39.1826 36.4768 40.936 37.3357 41.3827 37.513C41.5165 37.5815 41.6683 37.6065 41.817 37.5845C41.963 37.5619 42.099 37.4964 42.2076 37.3963C42.3162 37.2962 42.3925 37.166 42.4269 37.0224C42.4772 36.8055 42.5091 36.5847 42.5222 36.3624C42.6771 34.7058 43.0307 33.808 44.4532 33.808H56.5897C57.3205 33.8072 58.0212 33.5167 58.538 33.0001C59.0548 32.4836 59.3455 31.7833 59.3465 31.0528ZM57.9168 31.0528C57.9164 31.4045 57.7765 31.7417 57.5277 31.9904C57.2789 32.2391 56.9416 32.379 56.5897 32.3794H44.4526C41.8923 32.3794 41.3298 34.4243 41.1591 35.6756C40.7527 35.2826 40.2969 34.6194 40.1058 33.5387C40.0458 33.2112 39.8722 32.9154 39.6155 32.7034C39.3588 32.4913 39.0354 32.3766 38.7024 32.3794H37.8717C37.5198 32.379 37.1825 32.2391 36.9337 31.9904C36.6849 31.7417 36.545 31.4045 36.5446 31.0528V23.6091C36.545 23.2574 36.6849 22.9202 36.9337 22.6715C37.1825 22.4228 37.5198 22.2829 37.8717 22.2825H56.5897C56.9416 22.2829 57.2789 22.4228 57.5277 22.6715C57.7765 22.9202 57.9164 23.2574 57.9168 23.6091V31.0528Z" fill="#FF8E01"/>
<path d="M23.1285 19.662H4.41048C3.67959 19.6628 2.97886 19.9534 2.46204 20.4701C1.94522 20.9867 1.65451 21.6872 1.65369 22.4178V31.0525C1.65451 31.7831 1.94522 32.4836 2.46204 33.0002C2.97886 33.5169 3.67959 33.8075 4.41048 33.8083L16.6784 33.8101C17.1589 36.4761 18.9118 37.3354 19.3591 37.5126C19.4928 37.5814 19.6447 37.6066 19.7934 37.5848C19.9395 37.5623 20.0755 37.4968 20.1841 37.3966C20.2928 37.2965 20.3691 37.1663 20.4034 37.0226C20.4781 36.7559 20.4566 36.4398 20.4292 36.0398C20.3855 35.4021 20.3258 34.5288 20.7081 34.1196C20.9011 33.9131 21.2397 33.8083 21.7145 33.8083H23.1289C23.8598 33.8075 24.5605 33.5169 25.0773 33.0002C25.5942 32.4836 25.8849 31.7831 25.8857 31.0525V22.4178C25.8849 21.6871 25.5941 20.9866 25.0772 20.4699C24.5603 19.9533 23.8595 19.6627 23.1285 19.662ZM24.4557 31.0527C24.4552 31.4044 24.3153 31.7416 24.0665 31.9903C23.8177 32.239 23.4804 32.3789 23.1285 32.3793H21.7141C20.8272 32.3793 20.1372 32.6367 19.6629 33.1443C19.0384 33.8127 18.9503 34.7323 18.9692 35.5071C18.6111 35.1031 18.2485 34.48 18.0822 33.5387C18.0222 33.2112 17.8486 32.9154 17.5919 32.7033C17.3352 32.4913 17.0119 32.3765 16.6789 32.3793H4.41048C4.05864 32.3789 3.72132 32.239 3.47253 31.9903C3.22374 31.7416 3.08378 31.4044 3.08337 31.0527V22.418C3.08372 22.0663 3.22364 21.729 3.47244 21.4803C3.72124 21.2315 4.0586 21.0916 4.41048 21.0912H23.1285C23.4804 21.0916 23.8177 21.2315 24.0665 21.4802C24.3153 21.7289 24.4552 22.0661 24.4557 22.4178V31.0527Z" fill="#172134"/>
</svg>
