<svg width="195" height="195" viewBox="0 0 195 195" fill="none" xmlns="http://www.w3.org/2000/svg">
<circle cx="97.5" cy="97.5" r="72.5" fill="#F0F5F8"/>
<circle cx="97.5" cy="97.5" r="97" stroke="#F0F5F8"/>
<path d="M82.3917 76.4316H88.955C89.1125 76.4244 89.2646 76.372 89.3932 76.2806C89.5217 76.1892 89.6212 76.0628 89.6798 75.9164C89.7383 75.7699 89.7534 75.6097 89.7234 75.4549C89.6933 75.3001 89.6192 75.1573 89.5101 75.0434L86.8612 72.3858C88.6916 70.9149 90.8046 69.8356 93.0693 69.2148C95.3339 68.594 97.7019 68.445 100.027 68.777C102.351 69.109 104.583 69.9149 106.583 71.1448C108.583 72.3747 110.31 74.0024 111.655 75.9269C111.775 76.0974 111.958 76.2135 112.163 76.2494C112.368 76.2854 112.579 76.2383 112.75 76.1186C112.92 75.9988 113.037 75.8162 113.072 75.611C113.108 75.4057 113.061 75.1945 112.942 75.0239C111.465 72.9115 109.568 71.1269 107.369 69.7817C105.17 68.4366 102.718 67.5599 100.165 67.2067C97.6115 66.8534 95.0129 67.0312 92.5317 67.7289C90.0504 68.4266 87.74 69.6291 85.7451 71.2612L82.9468 68.4638C82.8431 68.3545 82.7083 68.2796 82.5607 68.2492C82.413 68.2188 82.2596 68.2343 82.1211 68.2937C81.9811 68.3548 81.8628 68.4567 81.7816 68.586C81.7004 68.7154 81.6602 68.8663 81.6661 69.0189V75.5827C81.6661 76.0162 81.958 76.4316 82.3917 76.4316ZM83.2364 70.9144L85.1387 72.846C85.14 72.8476 85.1263 72.8492 85.1276 72.8508C85.1491 72.8748 85.1645 72.9293 85.188 72.9497L87.0593 74.8602H83.2364V70.9144Z" fill="#FF8E01"/>
<path d="M112.287 118.568H105.724C105.566 118.576 105.414 118.628 105.285 118.719C105.157 118.811 105.057 118.937 104.999 119.084C104.94 119.23 104.925 119.39 104.955 119.545C104.985 119.7 105.059 119.843 105.168 119.957L107.818 122.614C105.988 124.085 103.875 125.164 101.61 125.785C99.3453 126.406 96.9773 126.555 94.6527 126.223C92.3281 125.891 90.0965 125.085 88.0962 123.855C86.0958 122.625 84.3695 120.998 83.024 119.073C82.9044 118.903 82.7219 118.786 82.5166 118.75C82.3114 118.714 82.1003 118.761 81.9297 118.881C81.7591 119.001 81.6431 119.183 81.607 119.388C81.571 119.594 81.618 119.805 81.7377 119.975C83.2145 122.088 85.1116 123.872 87.3102 125.218C89.5088 126.563 91.9615 127.439 94.5146 127.793C97.0677 128.146 99.6663 127.968 102.148 127.27C104.629 126.573 106.939 125.37 108.934 123.738L111.732 126.536C111.842 126.646 111.982 126.721 112.134 126.751C112.286 126.781 112.444 126.766 112.588 126.706C112.731 126.647 112.854 126.546 112.94 126.417C113.026 126.288 113.072 126.136 113.072 125.981V119.417C113.072 118.984 112.721 118.568 112.287 118.568ZM111.502 124.086L109.569 122.153C109.568 122.151 109.567 122.15 109.566 122.149C109.545 122.125 109.522 122.071 109.499 122.05L107.619 120.139H111.502V124.086Z" fill="#172134"/>
<path d="M91.6112 115.334V111.276C91.6112 111.255 91.5814 111.233 91.5797 111.211C91.5005 110.328 91.1972 109.48 90.6986 108.747C90.2 108.015 89.5226 107.421 88.7305 107.023C88.7006 107.01 88.6701 106.998 88.6389 106.987L84.4532 105.479C85.1186 105.235 85.7187 104.84 86.2067 104.326C86.6947 103.812 87.0575 103.193 87.2667 102.515C87.6527 102.534 88.0396 102.504 88.4183 102.427C89.4589 102.213 90.3937 101.646 91.0649 100.823C91.7362 99.9995 92.1026 98.9696 92.1023 97.9073C92.1023 96.514 91.272 95.2246 90.2834 94.3602C90.5906 93.8941 90.7544 93.3481 90.7545 92.7899C90.7546 92.5591 90.7269 92.3291 90.6722 92.1048C90.5633 91.6669 90.3315 91.2692 90.0042 90.9586C89.6769 90.6479 89.2677 90.4372 88.8247 90.3513L88.9817 88.0763C89.1165 86.1258 88.6438 84.1814 87.6287 82.5104C86.6135 80.8394 85.1057 79.5238 83.3125 78.7446C81.5192 77.9654 79.5287 77.7607 77.6144 78.1587C75.7002 78.5568 73.9562 79.5379 72.6222 80.9674C71.7321 81.9127 71.0482 83.0328 70.6138 84.2565C70.1795 85.4802 70.0043 86.7808 70.0993 88.0758L70.2563 90.3593C69.8127 90.4423 69.4023 90.651 69.0737 90.9603C68.7452 91.2697 68.5123 91.6669 68.4028 92.1047C68.3481 92.3289 68.3205 92.5589 68.3206 92.7897C68.3204 93.3152 68.4653 93.8305 68.7394 94.2788C68.1331 94.7553 67.6559 95.3761 67.3514 96.0846C67.0468 96.793 66.9246 97.5664 66.9958 98.3342C67.0671 99.102 67.3295 99.8397 67.7593 100.48C68.189 101.12 68.7723 101.643 69.4558 102C69.8365 102.199 70.2432 102.343 70.6641 102.43C71.0433 102.507 71.4307 102.536 71.8173 102.518C72.0273 103.198 72.3919 103.82 72.8826 104.335C73.3733 104.851 73.9767 105.245 74.6454 105.488L70.4905 106.987C70.4616 106.998 70.4334 107.01 70.4059 107.024C69.6134 107.421 68.9355 108.014 68.4363 108.747C67.9371 109.48 67.6331 110.328 67.5531 111.211C67.5514 111.233 67.533 111.255 67.533 111.277V115.334C67.5331 115.768 67.9197 116.082 68.3533 116.082H90.7684C91.2019 116.082 91.6112 115.768 91.6112 115.334ZM85.5917 111.276V114.512H73.4218V111.276C73.4218 111.255 73.448 111.233 73.4465 111.211C73.35 110.042 72.8587 108.941 72.0534 108.088L76.5307 106.481L78.787 109.489V112.099C78.787 112.307 78.8697 112.507 79.017 112.654C79.1642 112.801 79.3639 112.884 79.5722 112.884C79.7804 112.884 79.9801 112.801 80.1274 112.654C80.2746 112.507 80.3573 112.307 80.3573 112.099V109.489L82.5819 106.468L87.0635 108.088C86.2454 108.937 85.7386 110.038 85.6255 111.211C85.6235 111.233 85.5917 111.255 85.5917 111.276ZM79.5751 103.595C80.2341 103.593 80.8911 103.522 81.5351 103.382V105.285L79.5722 107.912L77.6093 105.285V103.381C78.2551 103.522 78.914 103.594 79.5751 103.595V103.595ZM88.8968 100.605C88.6467 100.736 88.3794 100.831 88.1028 100.888C87.6808 100.974 87.2456 100.97 86.8251 100.878C86.7186 100.854 86.6084 100.853 86.5014 100.874C86.3944 100.895 86.2931 100.939 86.2038 101.001C86.1146 101.064 86.0393 101.145 85.9829 101.238C85.9265 101.331 85.8902 101.435 85.8762 101.543C85.8033 102.099 85.5786 102.624 85.2268 103.06C84.875 103.496 84.4097 103.827 83.8822 104.016C83.7567 104.063 83.6278 104.101 83.4966 104.13C83.3676 104.156 83.2368 104.174 83.1054 104.182V102.88C84.1038 102.425 85.0213 101.81 85.8219 101.059C87.3213 99.6078 88.2643 97.6764 88.4867 95.6013C88.6924 95.5565 88.8924 95.4888 89.0829 95.3992C89.8534 96.0084 90.5347 96.9779 90.5347 97.9071C90.5349 98.4638 90.3823 99.0098 90.0935 99.4857C89.8047 99.9616 89.3907 100.349 88.8968 100.606V100.605ZM73.7701 82.0389C74.8828 80.8468 76.3373 80.0287 77.9338 79.6968C79.5302 79.3649 81.1903 79.5357 82.6858 80.1855C84.1814 80.8353 85.4389 81.9324 86.2857 83.3259C87.1325 84.7194 87.5269 86.341 87.4147 87.9677L87.257 90.2541C85.7941 90.0362 84.7015 89.4594 84.005 88.5313C82.5488 86.5907 83.189 83.6764 83.1953 83.6486C83.2353 83.476 83.2157 83.2949 83.1398 83.1348C83.0639 82.9748 82.9361 82.8451 82.7771 82.7668C82.6182 82.6886 82.4374 82.6664 82.2643 82.7039C82.0911 82.7414 81.9357 82.8363 81.8233 82.9733L79.6205 85.6573L79.6122 85.6675C79.0276 86.4087 78.2821 87.0073 77.4321 87.4182C76.5822 87.829 75.65 88.0413 74.7059 88.0389C73.6292 88.0404 72.5847 88.4061 71.7422 89.0766L71.6658 87.9684C71.5865 86.8881 71.7327 85.8032 72.0949 84.7825C72.4572 83.7617 73.0276 82.8274 73.7701 82.0389ZM69.9278 92.4782C69.9719 92.3036 70.0747 92.1494 70.219 92.0416C70.3632 91.9338 70.5401 91.8788 70.7201 91.8859C70.7746 91.879 70.8296 91.8771 70.8844 91.8803C70.9333 91.8824 70.9824 91.88 71.0309 91.8731H71.0925C71.0937 91.8731 71.095 91.8941 71.096 91.8941C71.0971 91.8941 71.1015 91.9041 71.1043 91.9041C71.1344 91.9054 71.1645 91.9049 71.1946 91.9028C71.2046 91.9016 71.2144 91.9028 71.2244 91.9008C71.2493 91.8966 71.2739 91.8927 71.2979 91.8863C71.3062 91.8841 71.3143 91.8829 71.3223 91.8805C71.3538 91.8713 71.3847 91.8601 71.4148 91.8469C71.4195 91.8448 71.4241 91.8423 71.4288 91.8401C71.4541 91.8283 71.4787 91.8152 71.5026 91.8008C71.5108 91.7959 71.5191 91.7906 71.5272 91.7853C71.5498 91.7706 71.5716 91.7547 71.5926 91.7378C71.5979 91.7334 71.6034 91.7298 71.6086 91.7253C71.6305 91.7066 71.6514 91.6867 71.6711 91.6657C71.674 91.6625 71.6764 91.6591 71.6793 91.6561C71.6849 91.6498 71.6901 91.643 71.6956 91.6365C71.7132 91.6155 71.7296 91.5937 71.745 91.5711C71.7495 91.5642 71.7544 91.558 71.758 91.5506C71.777 91.5213 71.7939 91.4907 71.8088 91.459L71.8101 91.4568C72.0661 90.9045 72.4748 90.4371 72.9879 90.1097C73.5011 89.7823 74.0972 89.6086 74.7059 89.6092C75.8855 89.6123 77.0504 89.3475 78.1127 88.8347C79.175 88.322 80.107 87.5747 80.8384 86.6492L81.4996 85.8436C81.5781 86.9821 81.8877 88.3216 82.742 89.465C83.8454 90.9421 85.5934 91.7624 87.9371 91.903C87.9455 91.903 87.9537 91.8877 87.9621 91.888C87.9705 91.8883 87.9767 91.8737 87.9841 91.8737H88.0436C88.0921 91.8788 88.1409 91.8794 88.1895 91.8754C88.395 91.8321 88.6093 91.8699 88.7876 91.9809C88.9659 92.092 89.0944 92.2676 89.1462 92.4711C89.1711 92.5752 89.1836 92.6819 89.1835 92.789C89.1832 93.1349 89.0461 93.4668 88.802 93.712C88.5579 93.9571 88.2267 94.0958 87.8807 94.0977H87.7394C87.5357 94.097 87.3399 94.1757 87.1933 94.3171C87.0467 94.4584 86.9609 94.6513 86.9542 94.8548C86.8896 96.7781 86.0801 98.601 84.6967 99.9387C83.3133 101.276 81.4642 102.024 79.5398 102.024C77.6155 102.024 75.7664 101.276 74.383 99.9387C72.9996 98.601 72.1901 96.7781 72.1255 94.8548C72.1188 94.6513 72.0331 94.4583 71.8865 94.3169C71.7399 94.1755 71.544 94.0968 71.3403 94.0974H71.1939C70.8482 94.0965 70.5169 93.9586 70.2727 93.7139C70.0285 93.4692 69.8912 93.1377 69.8909 92.792C69.8907 92.6863 69.9031 92.5809 69.9278 92.4782ZM73.207 101.546C73.1931 101.438 73.1567 101.334 73.1003 101.24C73.0439 101.147 72.9686 101.067 72.8794 101.004C72.7901 100.941 72.6888 100.898 72.5818 100.877C72.4749 100.855 72.3646 100.856 72.2582 100.88C71.8371 100.973 71.4014 100.976 70.9789 100.891C70.3889 100.769 69.8482 100.475 69.4251 100.047C69.002 99.6178 68.7154 99.0732 68.6017 98.4817C68.488 97.8901 68.5521 97.2782 68.7861 96.7231C69.02 96.168 69.4132 95.6947 69.9161 95.363C70.1347 95.4721 70.3664 95.5526 70.6056 95.6026C70.8369 97.6795 71.7877 99.61 73.293 101.059C74.0815 101.838 75.0142 102.456 76.039 102.878V104.187C75.9 104.178 75.7616 104.161 75.6248 104.135C75.4839 104.107 75.3451 104.068 75.2095 104.021C74.6798 103.833 74.2124 103.503 73.8591 103.066C73.5057 102.629 73.2801 102.103 73.2073 101.545L73.207 101.546ZM69.1034 111.311C69.2113 110.325 69.7053 109.421 70.4774 108.798C71.2567 109.402 71.8515 110.315 71.8515 111.311V114.512H69.1034V111.311ZM90.0409 114.512H87.162V111.311C87.2948 110.317 87.8116 109.415 88.6015 108.798C89.3915 109.415 89.9083 110.317 90.0409 111.311V114.512Z" fill="#172134"/>
<path d="M125.344 105.226C125.316 105.213 125.27 105.2 125.241 105.189L122.232 104.11V103.104C122.236 102.964 122.201 102.825 122.131 102.703C122.061 102.581 121.959 102.48 121.836 102.412C121.816 102.4 121.795 102.389 121.773 102.38L121.778 102.378L120.255 101.75C121.639 101.116 122.826 100.12 123.691 98.8682C124.557 97.6164 125.07 96.1544 125.175 94.6359C125.763 94.375 126.24 93.9162 126.523 93.3394C126.806 92.7627 126.878 92.1047 126.726 91.4804C126.647 91.1505 126.494 90.8429 126.279 90.5811C126.063 90.3193 125.791 90.11 125.482 89.9694L125.62 87.9688C125.704 86.7525 125.537 85.532 125.129 84.3831C124.721 83.2342 124.081 82.1814 123.249 81.2901C122.418 80.3989 121.411 79.6883 120.293 79.2024C119.175 78.7165 117.969 78.4658 116.75 78.4658C115.531 78.4658 114.324 78.7165 113.206 79.2024C112.088 79.6883 111.082 80.3989 110.25 81.2901C109.418 82.1814 108.778 83.2342 108.371 84.3831C107.963 85.532 107.796 86.7525 107.88 87.9688L108.017 89.9669C107.707 90.107 107.434 90.3163 107.217 90.5787C107 90.841 106.847 91.1495 106.768 91.4804C106.615 92.1052 106.687 92.7637 106.971 93.3408C107.255 93.9179 107.733 94.3767 108.321 94.637C108.426 96.1572 108.939 97.621 109.807 98.8736C110.675 100.126 111.865 101.121 113.251 101.754L111.755 102.37L111.758 102.378C111.733 102.388 111.693 102.399 111.669 102.412C111.542 102.478 111.435 102.577 111.36 102.699C111.284 102.821 111.243 102.961 111.24 103.104V104.11L108.264 105.189C108.238 105.2 108.212 105.212 108.187 105.225C107.439 105.601 106.8 106.161 106.329 106.853C105.859 107.545 105.573 108.345 105.498 109.178C105.496 109.2 105.482 109.222 105.482 109.244V114.999C105.488 115.214 105.576 115.419 105.728 115.572C105.88 115.724 106.085 115.813 106.3 115.82H114.017L116.206 118.721C116.281 118.816 116.376 118.892 116.485 118.945C116.593 118.998 116.712 119.025 116.833 119.026C116.954 119.026 117.073 119 117.182 118.948C117.291 118.896 117.387 118.82 117.462 118.725L119.651 115.82H127.238C127.671 115.82 127.99 115.432 127.99 114.999V109.244C127.99 109.222 128.006 109.2 128.003 109.179C127.934 108.347 127.654 107.548 127.188 106.856C126.723 106.164 126.088 105.603 125.344 105.226ZM121.971 109.244V114.25H119.828L118.771 108.535C118.881 108.589 119.003 108.616 119.126 108.613C119.248 108.612 119.369 108.583 119.478 108.528C119.587 108.473 119.681 108.393 119.754 108.295L121.772 105.603L123.341 106.168C122.544 106.98 122.057 108.046 121.963 109.179C121.961 109.201 121.971 109.222 121.971 109.244ZM111.633 114.25V109.244C111.633 109.222 111.62 109.2 111.618 109.179C111.518 108.04 111.023 106.973 110.22 106.161L111.77 105.6L113.786 108.29C113.906 108.451 114.083 108.559 114.281 108.593C114.478 108.627 114.681 108.584 114.848 108.472L114.916 108.445L113.841 114.25H111.633ZM118.184 106.247L120.463 104.729L118.944 106.754L118.184 106.247ZM118.568 104.105L116.798 105.304L115.035 104.11V102.325C115.608 102.453 116.193 102.516 116.779 102.514C117.381 102.517 117.982 102.45 118.568 102.315V104.105ZM115.354 106.247L114.595 106.754L113.075 104.729L115.354 106.247ZM111.398 82.3618C112.43 81.2562 113.779 80.4974 115.26 80.1896C116.741 79.8818 118.28 80.0401 119.667 80.6429C121.055 81.2456 122.221 82.2632 123.006 83.5557C123.792 84.8482 124.158 86.3522 124.053 87.8611L123.967 89.1128L123.332 86.4926C123.321 86.4507 123.308 86.4098 123.291 86.3702C122.996 85.6825 122.513 85.0917 121.898 84.6652C121.283 84.2387 120.56 83.9938 119.813 83.9583L119.064 83.9252C118.933 83.9196 118.803 83.9468 118.685 84.0043C118.568 84.0619 118.466 84.1479 118.39 84.2546C117.708 85.2129 116.783 85.9723 115.71 86.455C114.637 86.9377 113.455 87.1262 112.285 87.0012L111.027 86.8659C110.881 86.8502 110.733 86.8639 110.593 86.9062C110.452 86.9486 110.321 87.0187 110.208 87.1124C110.095 87.2062 110.002 87.3217 109.934 87.4521C109.866 87.5825 109.825 87.7251 109.814 87.8716L109.62 90.2932L109.614 90.291L109.446 87.8611C109.373 86.8593 109.508 85.8531 109.844 84.9064C110.18 83.9598 110.709 83.0933 111.398 82.3618ZM109.872 94.0543C109.872 93.8695 109.807 93.6907 109.688 93.5492C109.569 93.4078 109.404 93.3128 109.223 93.2809C109.065 93.2529 108.916 93.193 108.783 93.1049C108.65 93.0168 108.536 92.9024 108.449 92.7688C108.362 92.6351 108.303 92.485 108.277 92.3278C108.25 92.1705 108.256 92.0095 108.293 91.8545C108.328 91.7015 108.416 91.5659 108.542 91.472C108.627 91.5465 108.721 91.6105 108.821 91.6625C108.842 91.6737 108.865 91.6839 108.887 91.6929C110.033 92.1518 110.377 92.2068 110.732 91.9871C110.839 91.9208 110.928 91.8306 110.994 91.7236C111.059 91.6166 111.099 91.4957 111.109 91.3707L111.34 88.4787L112.117 88.5624C113.491 88.7089 114.88 88.5062 116.154 87.9729C117.429 87.4397 118.548 86.5932 119.408 85.512L119.743 85.5268C120.185 85.5478 120.613 85.6898 120.979 85.9372C121.346 86.1846 121.637 86.528 121.822 86.9299L123.003 91.7996C123.036 91.9328 123.102 92.0552 123.197 92.1547C123.291 92.2542 123.41 92.3272 123.541 92.3665C123.672 92.4059 123.812 92.4101 123.945 92.3789C124.079 92.3477 124.202 92.282 124.302 92.1885L124.947 91.5865C124.969 91.566 124.989 91.5439 125.01 91.5223C125.105 91.6117 125.171 91.7273 125.201 91.8544C125.223 91.9456 125.235 92.0392 125.234 92.1331C125.235 92.4067 125.139 92.6718 124.964 92.8817C124.788 93.0915 124.544 93.2328 124.275 93.2805C124.092 93.3154 123.928 93.413 123.809 93.5563C123.691 93.6996 123.626 93.8798 123.626 94.0656C123.625 95.8896 122.899 97.6381 121.608 98.9268C120.317 100.215 118.567 100.938 116.744 100.937C114.92 100.935 113.171 100.209 111.882 98.9185C110.594 97.6277 109.871 95.8782 109.872 94.0543ZM107.053 109.278C107.114 108.786 107.279 108.312 107.539 107.888C107.799 107.465 108.146 107.102 108.558 106.825C108.969 107.102 109.317 107.465 109.576 107.888C109.836 108.312 110.002 108.786 110.062 109.278V114.25H107.053V109.278ZM116.834 116.923L115.312 114.893L116.739 107.212L116.769 107.192L116.95 107.312L118.357 114.894L116.834 116.923ZM126.42 114.25H123.541V109.278C123.672 108.284 124.156 107.379 124.98 106.831C125.805 107.379 126.42 108.284 126.42 109.278V114.25Z" fill="#172134"/>
</svg>
