<svg width="60" height="60" viewBox="0 0 60 60" fill="none" xmlns="http://www.w3.org/2000/svg">
<path d="M56.8918 46.4768C56.8926 44.0625 56.1244 41.7106 54.6985 39.7623C53.2727 37.8139 51.2634 36.3703 48.9619 35.6407C46.6605 34.9112 44.1865 34.9336 41.8986 35.7047C39.6107 36.4758 37.6278 37.9556 36.2375 39.9294C36.0357 39.8357 35.829 39.7526 35.6183 39.6806L30.2355 37.8564C31.9455 37.145 33.3544 35.8605 34.2204 34.2234C35.0865 32.5864 35.3556 30.6989 34.9816 28.8851L34.0369 24.3045C34.6408 23.9189 35.1088 23.3539 35.3755 22.6889C35.6421 22.0239 35.6939 21.292 35.5236 20.5961C35.4183 20.1535 35.2051 19.7439 34.9029 19.4038C34.6008 19.0636 34.2192 18.8036 33.7922 18.6468L33.8086 14.1344C33.8147 12.5166 33.502 10.9135 32.8882 9.41671C32.2745 7.9199 31.3718 6.5587 30.2318 5.41092C29.0917 4.26313 27.7367 3.35127 26.244 2.72743C24.7514 2.10359 23.1504 1.78002 21.5327 1.7752C19.915 1.77038 18.3121 2.08441 16.8158 2.69934C15.3195 3.31427 13.959 4.21805 12.8121 5.35902C11.6653 6.49999 10.7545 7.85579 10.1318 9.34892C9.50921 10.842 9.18692 12.4432 9.1834 14.061L9.19512 17.9957C9.19512 18.0019 9.19512 18.0083 9.19512 18.0148L9.20941 18.6515C8.78525 18.8095 8.40654 19.0696 8.10675 19.4087C7.80696 19.7478 7.59531 20.1556 7.49051 20.596C7.30527 21.3533 7.3833 22.1511 7.71176 22.8582C8.04023 23.5653 8.59956 24.1396 9.29777 24.4866L8.1757 28.7018C7.69508 30.5036 7.86145 32.4169 8.64588 34.1087C9.4303 35.8005 10.7831 37.1637 12.4689 37.961L7.39523 39.6799C6.14519 40.1032 5.05931 40.9078 4.29034 41.9804C3.52136 43.053 3.108 44.3397 3.1084 45.6594V53.9329C3.1084 54.1504 3.19482 54.3591 3.34866 54.5129C3.5025 54.6667 3.71115 54.7532 3.92871 54.7532H37.7418C39.252 56.1786 41.1249 57.1615 43.1559 57.5945C45.1869 58.0275 47.2979 57.894 49.2581 57.2085L55.1682 58.2424C55.3136 58.2678 55.4632 58.2536 55.6011 58.2011C55.739 58.1486 55.8603 58.0599 55.952 57.9443C56.0438 57.8287 56.1026 57.6905 56.1224 57.5443C56.1422 57.398 56.1221 57.2491 56.0644 57.1133L54.5018 53.4394C56.0565 51.4521 56.8983 49 56.8918 46.4768ZM35.3834 41.3452C34.4421 43.2021 34.0299 45.2822 34.1918 47.3577C34.3538 49.4333 35.0836 51.4243 36.3014 53.1128H22.3161V47.6838L30.5361 39.6905L35.0916 41.2343C35.1902 41.2677 35.2873 41.3053 35.3834 41.3452ZM16.6759 38.2675L20.6754 42.2561V45.3733L14.2225 39.0984L16.6759 38.2675ZM20.5064 35.7256H22.5069C23.4516 35.7256 24.3916 35.5912 25.2984 35.3264V36.9867L21.5067 40.7682L17.715 36.9866V35.3264C18.6219 35.5912 19.5618 35.7256 20.5065 35.7256H20.5064ZM22.316 42.2782L26.3375 38.2675L28.791 39.0989L22.3161 45.3953L22.316 42.2782ZM32.1211 34.4459C31.542 35.173 30.8094 35.7632 29.9758 36.1744C29.1421 36.5857 28.228 36.8077 27.2986 36.8248C27.2697 36.8254 27.2408 36.8275 27.2121 36.8312L26.9391 36.7386V34.6899C28.2142 34.0562 29.357 33.1856 30.3064 32.1245C31.549 30.743 32.4637 29.0988 32.9821 27.3144L33.3744 29.2164C33.5634 30.1266 33.549 31.0672 33.3324 31.9712C33.1157 32.8752 32.7022 33.7202 32.1212 34.4459H32.1211ZM21.4959 3.38697C22.9031 3.38693 24.2964 3.66517 25.5956 4.20567C26.8948 4.74618 28.0742 5.53828 29.0661 6.5364C30.058 7.53451 30.8427 8.71893 31.3751 10.0215C31.9074 11.324 32.1769 12.719 32.1681 14.1262L32.1544 17.896C29.1581 17.7291 26.3095 16.5404 24.0833 14.5281C25.5915 13.3211 27.0615 11.6643 28.3508 9.3824C28.4038 9.2886 28.4378 9.18529 28.4509 9.07835C28.4639 8.97141 28.4558 8.86295 28.427 8.75915C28.3981 8.65535 28.3491 8.55826 28.2827 8.4734C28.2163 8.38855 28.1339 8.3176 28.0401 8.26461C27.9463 8.21162 27.843 8.17762 27.736 8.16455C27.6291 8.15149 27.5206 8.15961 27.4168 8.18847C27.3131 8.21732 27.216 8.26634 27.1311 8.33271C27.0462 8.39909 26.9753 8.48153 26.9223 8.57533C22.8739 15.7411 17.0388 16.0671 14.2345 16.2236L14.1933 16.2259C13.481 16.2658 12.8105 16.7644 12.4426 17.5267C12.3507 17.7137 12.1977 17.8637 12.009 17.9521C11.835 18.0344 11.6397 18.061 11.45 18.0282C11.2603 17.9954 11.0853 17.9049 10.9489 17.7689L10.8346 17.6547L10.824 14.0579C10.8275 11.2287 11.953 8.51643 13.9537 6.51597C15.9543 4.5155 18.6667 3.39023 21.4959 3.38697ZM9.08379 20.9861C9.14055 20.7489 9.2717 20.5362 9.45805 20.3789C9.6444 20.2216 9.87618 20.1281 10.1195 20.112C10.2774 20.0974 10.4277 20.0374 10.5522 19.9392C10.6767 19.8411 10.7701 19.709 10.8212 19.5588C11.41 19.7488 12.0476 19.7199 12.6169 19.4775C13.1861 19.2352 13.6488 18.7955 13.92 18.2394C14.0333 18.0044 14.2073 17.8682 14.2845 17.8644L14.3256 17.8621C16.1135 17.7622 19.4046 17.578 22.7176 15.4996C25.2872 17.9384 28.6477 19.3724 32.1864 19.5402C32.2347 19.6947 32.3276 19.8315 32.4534 19.9333C32.5793 20.0351 32.7324 20.0974 32.8936 20.1123C33.1369 20.1284 33.3687 20.222 33.5551 20.3793C33.7415 20.5366 33.8726 20.7494 33.9294 20.9865C33.9875 21.2244 33.9963 21.4716 33.9551 21.7129C33.914 21.9542 33.8238 22.1846 33.6901 22.3897C33.5564 22.5948 33.3821 22.7703 33.1779 22.9054C32.9738 23.0405 32.7441 23.1323 32.503 23.1751C32.3128 23.2084 32.1404 23.3078 32.0162 23.4557C31.892 23.6036 31.824 23.7906 31.8241 23.9837V23.9993C31.8033 26.5969 30.8304 29.0966 29.0896 31.0247C27.3036 32.9987 24.9657 34.0859 22.5067 34.0859H20.5065C18.0475 34.0859 15.7096 32.9987 13.9235 31.0247C12.1828 29.0966 11.2098 26.5969 11.1891 23.9993V23.9837C11.1892 23.7906 11.1212 23.6036 10.997 23.4557C10.8728 23.3078 10.7004 23.2084 10.5102 23.1751C10.2691 23.1323 10.0394 23.0405 9.83527 22.9054C9.63109 22.7703 9.45678 22.5947 9.32311 22.3896C9.18943 22.1845 9.09923 21.9542 9.05807 21.7128C9.0169 21.4715 9.02566 21.2242 9.08379 20.9864V20.9861ZM10.6993 34.3972C10.1669 33.6403 9.80697 32.7758 9.64498 31.8646C9.483 30.9535 9.52289 30.0179 9.76184 29.1238L10.1447 27.6851C10.6787 29.3281 11.5519 30.8405 12.7077 32.1245C13.6571 33.1857 14.8 34.0563 16.0752 34.6899V36.7385L15.1793 37.0422C14.2871 36.9465 13.4256 36.661 12.6529 36.2048C11.8802 35.7486 11.2141 35.1323 10.6993 34.3972ZM4.74902 45.6599C4.74873 44.6831 5.05469 43.7307 5.62386 42.9369C6.19303 42.143 6.99676 41.5476 7.92199 41.2343L12.4777 39.6904L20.6755 47.662V53.1128H4.74902V45.6599ZM54.5861 50.0186C54.1906 51.0227 53.6303 51.9537 52.9283 52.7734C52.8296 52.8894 52.7651 53.0307 52.7421 53.1813C52.7191 53.3319 52.7385 53.486 52.7981 53.6262L53.9634 56.3663L49.3263 55.5551C49.2796 55.5472 49.2324 55.5432 49.185 55.5434C49.0877 55.5433 48.9912 55.5606 48.9 55.5943C46.8172 56.361 44.5344 56.3904 42.4325 55.6775C40.3306 54.9647 38.5367 53.5528 37.3499 51.6772C36.1632 49.8017 35.6554 47.5759 35.9112 45.3712C36.167 43.1665 37.171 41.1162 38.7557 39.5623C40.3404 38.0083 42.41 37.0446 44.6192 36.832C46.8285 36.6194 49.0439 37.1708 50.8958 38.394C52.7478 39.6173 54.1243 41.4385 54.7959 43.5539C55.4674 45.6694 55.3934 47.9511 54.5861 50.0186Z" fill="#fff"/>
<path d="M49.0987 44.229H41.9503C41.7328 44.229 41.5241 44.3154 41.3703 44.4693C41.2164 44.6231 41.13 44.8318 41.13 45.0493C41.13 45.2669 41.2164 45.4755 41.3703 45.6294C41.5241 45.7832 41.7328 45.8696 41.9503 45.8696H49.0987C49.3163 45.8696 49.525 45.7832 49.6788 45.6294C49.8326 45.4755 49.9191 45.2669 49.9191 45.0493C49.9191 44.8318 49.8326 44.6231 49.6788 44.4693C49.525 44.3154 49.3163 44.229 49.0987 44.229Z" fill="#FF8E01"/>
<path d="M45.3488 48.5222H41.9503C41.7328 48.5222 41.5241 48.6086 41.3703 48.7625C41.2164 48.9163 41.13 49.125 41.13 49.3425C41.13 49.5601 41.2164 49.7687 41.3703 49.9226C41.5241 50.0764 41.7328 50.1628 41.9503 50.1628H45.3488C45.5663 50.1628 45.775 50.0764 45.9288 49.9226C46.0826 49.7687 46.1691 49.5601 46.1691 49.3425C46.1691 49.125 46.0826 48.9163 45.9288 48.7625C45.775 48.6086 45.5663 48.5222 45.3488 48.5222Z" fill="#FF8E01"/>
<path d="M26.2516 47.9486H25.1118C24.8943 47.9486 24.6856 48.035 24.5318 48.1889C24.3779 48.3427 24.2915 48.5514 24.2915 48.7689C24.2915 48.9865 24.3779 49.1951 24.5318 49.349C24.6856 49.5028 24.8943 49.5892 25.1118 49.5892H26.2516C26.4691 49.5892 26.6778 49.5028 26.8316 49.349C26.9855 49.1951 27.0719 48.9865 27.0719 48.7689C27.0719 48.5514 26.9855 48.3427 26.8316 48.1889C26.6778 48.035 26.4691 47.9486 26.2516 47.9486Z" fill="#FF8E01"/>
</svg>
