<svg width="61" height="61" viewBox="0 0 61 61" fill="none" xmlns="http://www.w3.org/2000/svg">
<path d="M30.2594 19.035C28.4739 19.0371 26.7621 19.747 25.4995 21.0091C24.2369 22.2712 23.5267 23.9824 23.5247 25.7673V28.7762C23.5322 30.5569 24.245 32.262 25.5072 33.5185C26.7694 34.7749 28.4781 35.4804 30.2594 35.4804C32.0407 35.4804 33.7494 34.7749 35.0116 33.5185C36.2738 32.262 36.9866 30.5569 36.9941 28.7762V25.7673C36.9921 23.9824 36.2819 22.2712 35.0193 21.0091C33.7568 19.747 32.045 19.0371 30.2594 19.035ZM35.5644 28.7762C35.5578 30.1784 34.9959 31.5208 34.0018 32.5099C33.0076 33.4991 31.662 34.0543 30.2594 34.0543C28.8567 34.0543 27.5112 33.4991 26.517 32.5099C25.5228 31.5208 24.961 30.1784 24.9543 28.7762V25.7673C24.961 24.3652 25.5228 23.0228 26.517 22.0336C27.5112 21.0445 28.8567 20.4892 30.2594 20.4892C31.662 20.4892 33.0076 21.0445 34.0018 22.0336C34.9959 23.0228 35.5578 24.3652 35.5644 25.7673V28.7762Z" fill="#fff"/>
<path d="M19.0837 54.3148H41.4352C41.6248 54.3148 41.8066 54.2395 41.9407 54.1055C42.0747 53.9715 42.1501 53.7897 42.1501 53.6002V51.3059H57.6503C57.8398 51.3059 58.0217 51.2306 58.1557 51.0966C58.2898 50.9625 58.3651 50.7808 58.3651 50.5913V44.6647C58.3639 42.9756 57.7195 41.3504 56.5628 40.1192C55.4062 38.888 53.824 38.1432 52.1377 38.0361C51.7565 38.0079 51.5669 38.2395 51.3662 38.4844C50.943 39.0014 50.4073 39.415 49.7999 39.6937C49.1925 39.9723 48.5295 40.1087 47.8615 40.0923C47.1934 40.076 46.5379 39.9074 45.9449 39.5994C45.3518 39.2914 44.837 38.8521 44.4396 38.315C44.3713 38.2227 44.2818 38.1482 44.1786 38.0978C44.0755 38.0473 43.9617 38.0225 43.8469 38.0253C42.6368 38.0521 41.4576 38.4125 40.4394 39.0667C39.7868 38.2716 38.9769 37.6198 38.0607 37.152C37.1444 36.6842 36.1414 36.4105 35.1144 36.348C34.7405 36.3274 34.5618 36.5474 34.3346 36.8244C33.8412 37.4271 33.2168 37.9092 32.5089 38.234C31.8009 38.5588 31.0281 38.7177 30.2494 38.6987C29.4706 38.6796 28.7065 38.4831 28.0153 38.1241C27.3241 37.765 26.724 37.253 26.2608 36.6269C26.1921 36.535 26.1025 36.4608 25.9994 36.4104C25.8964 36.36 25.7828 36.3349 25.668 36.3372C23.7167 36.3824 21.8611 37.1915 20.5005 38.5904C20.3482 38.7464 20.2046 38.9088 20.0676 39.0754C19.1172 38.4633 18.0254 38.1055 16.897 38.0364C16.5158 38.0081 16.3263 38.2398 16.1255 38.4846C15.7023 39.0017 15.1666 39.4152 14.5592 39.6939C13.9519 39.9725 13.2889 40.1089 12.6208 40.0926C11.9527 40.0762 11.2972 39.9076 10.7042 39.5996C10.1112 39.2916 9.59639 38.8524 9.19898 38.3153C9.13059 38.2231 9.04105 38.1486 8.93788 38.0982C8.83472 38.0478 8.72094 38.0228 8.60614 38.0255C6.87387 38.0697 5.22737 38.7885 4.01764 40.0287C2.80791 41.2689 2.13065 42.9325 2.13025 44.6647V50.5913C2.13025 50.7808 2.20556 50.9625 2.33962 51.0966C2.47368 51.2306 2.6555 51.3059 2.84509 51.3059H18.3691V53.6002C18.3691 53.7897 18.4444 53.9714 18.5784 54.1054C18.7124 54.2394 18.8942 54.3147 19.0837 54.3148ZM43.5341 39.474C44.079 40.1145 44.7564 40.6293 45.5194 40.983C46.2825 41.3367 47.1132 41.5208 47.9544 41.5228C48.7955 41.5247 49.627 41.3443 50.3917 40.9941C51.1564 40.6439 51.836 40.1321 52.3839 39.4941C53.6412 39.6567 54.7963 40.271 55.6338 41.2224C56.4712 42.1738 56.9338 43.3974 56.9351 44.6647V49.8767H42.1497V43.8204C42.1503 42.5731 41.8373 41.3458 41.2395 40.251C41.9315 39.8129 42.7182 39.5465 43.5341 39.474ZM25.3533 37.7845C25.9663 38.5168 26.7321 39.1061 27.5971 39.5111C28.4621 39.9162 29.4053 40.1271 30.3605 40.1291C31.3157 40.1311 32.2598 39.9241 33.1265 39.5228C33.9932 39.1214 34.7615 38.5352 35.3776 37.8055C36.8496 37.9823 38.2058 38.6917 39.1902 39.7998C40.1745 40.9079 40.7189 42.338 40.7205 43.82V52.8852H19.7986V43.8204C19.799 42.3014 20.3701 40.838 21.3989 39.7201C22.4276 38.6022 23.8389 37.9113 25.3531 37.7845H25.3533ZM3.55994 49.8767V44.6647C3.56032 43.3654 4.04593 42.113 4.92166 41.1529C5.79739 40.1928 7.00015 39.5941 8.29435 39.4741C8.83928 40.1146 9.5166 40.6294 10.2797 40.983C11.0427 41.3367 11.8734 41.5208 12.7145 41.5227C13.5556 41.5247 14.3871 41.3443 15.1518 40.9941C15.9165 40.6439 16.5961 40.1322 17.144 39.4942C17.9001 39.5903 18.6257 39.8518 19.2691 40.2602C18.6765 41.3532 18.367 42.5771 18.3689 43.8204V49.8767H3.55994Z" fill="#fff"/>
<path d="M53.8516 31.4963V28.8627C53.8516 28.0771 53.6968 27.2993 53.3961 26.5735C53.0953 25.8477 52.6546 25.1883 52.0989 24.6328C51.5432 24.0773 50.8835 23.6367 50.1575 23.3361C49.4315 23.0355 48.6533 22.8807 47.8675 22.8807C47.0817 22.8807 46.3035 23.0355 45.5775 23.3361C44.8515 23.6367 44.1918 24.0773 43.6361 24.6328C43.0804 25.1883 42.6397 25.8477 42.3389 26.5735C42.0382 27.2993 41.8834 28.0771 41.8834 28.8627V31.4963C41.8834 33.0829 42.5139 34.6044 43.6361 35.7262C44.7584 36.8481 46.2804 37.4783 47.8675 37.4783C49.4546 37.4783 50.9767 36.8481 52.0989 35.7262C53.2211 34.6044 53.8516 33.0829 53.8516 31.4963ZM43.3131 31.4963V28.8627C43.3131 27.6552 43.7929 26.4972 44.6471 25.6434C45.5012 24.7896 46.6596 24.3099 47.8675 24.3099C49.0754 24.3099 50.2338 24.7896 51.0879 25.6434C51.9421 26.4972 52.4219 27.6552 52.4219 28.8627V31.4963C52.4205 32.7034 51.9403 33.8606 51.0865 34.7141C50.2326 35.5677 49.075 36.0478 47.8675 36.0491C46.66 36.0478 45.5023 35.5677 44.6485 34.7142C43.7946 33.8607 43.3144 32.7034 43.313 31.4963H43.3131Z" fill="#fff"/>
<path d="M18.6113 31.4963V28.8627C18.6113 27.2762 17.9809 25.7547 16.8586 24.6328C15.7364 23.511 14.2143 22.8807 12.6273 22.8807C11.0402 22.8807 9.51812 23.511 8.39588 24.6328C7.27365 25.7547 6.64319 27.2762 6.64319 28.8627V31.4963C6.64319 33.0829 7.27365 34.6044 8.39588 35.7262C9.51812 36.8481 11.0402 37.4783 12.6273 37.4783C14.2143 37.4783 15.7364 36.8481 16.8586 35.7262C17.9809 34.6044 18.6113 33.0829 18.6113 31.4963ZM8.07288 31.4963V28.8627C8.07288 27.6552 8.55271 26.4972 9.40683 25.6434C10.2609 24.7896 11.4194 24.3099 12.6273 24.3099C13.8352 24.3099 14.9936 24.7896 15.8477 25.6434C16.7018 26.4972 17.1817 27.6552 17.1817 28.8627V31.4963C17.1803 32.7034 16.7 33.8606 15.8462 34.7141C14.9924 35.5677 13.8348 36.0478 12.6273 36.0491C11.4198 36.0478 10.2621 35.5677 9.40832 34.7141C8.5545 33.8606 8.07423 32.7034 8.07288 31.4963Z" fill="#fff"/>
<path d="M59.3465 18.0528V10.6091C59.3457 9.87846 59.055 9.17798 58.5382 8.66134C58.0214 8.1447 57.3206 7.85409 56.5897 7.85327H37.8717C37.1408 7.85409 36.44 8.1447 35.9232 8.66134C35.4064 9.17798 35.1157 9.87846 35.1149 10.6091V18.0528C35.1157 18.7834 35.4064 19.4839 35.9232 20.0005C36.44 20.5172 37.1408 20.8078 37.8717 20.8086L38.7021 20.8104C39.1826 23.4768 40.936 24.3357 41.3827 24.513C41.5165 24.5815 41.6683 24.6065 41.817 24.5845C41.963 24.5619 42.099 24.4964 42.2076 24.3963C42.3162 24.2962 42.3925 24.166 42.4269 24.0224C42.4772 23.8055 42.5091 23.5847 42.5222 23.3624C42.6771 21.7058 43.0307 20.808 44.4532 20.808H56.5897C57.3205 20.8072 58.0212 20.5167 58.538 20.0001C59.0548 19.4836 59.3455 18.7833 59.3465 18.0528ZM57.9168 18.0528C57.9164 18.4045 57.7765 18.7417 57.5277 18.9904C57.2789 19.2391 56.9416 19.379 56.5897 19.3794H44.4526C41.8923 19.3794 41.3298 21.4243 41.1591 22.6756C40.7527 22.2826 40.2969 21.6194 40.1058 20.5387C40.0458 20.2112 39.8722 19.9154 39.6155 19.7034C39.3588 19.4913 39.0354 19.3766 38.7024 19.3794H37.8717C37.5198 19.379 37.1825 19.2391 36.9337 18.9904C36.6849 18.7417 36.545 18.4045 36.5446 18.0528V10.6091C36.545 10.2574 36.6849 9.92018 36.9337 9.67147C37.1825 9.42277 37.5198 9.28287 37.8717 9.28246H56.5897C56.9416 9.28287 57.2789 9.42277 57.5277 9.67147C57.7765 9.92018 57.9164 10.2574 57.9168 10.6091V18.0528Z" fill="#FF8E01"/>
<path d="M23.1285 6.66199H4.41048C3.67959 6.66281 2.97886 6.95341 2.46204 7.47005C1.94522 7.98669 1.65451 8.68717 1.65369 9.41781V18.0525C1.65451 18.7831 1.94522 19.4836 2.46204 20.0002C2.97886 20.5169 3.67959 20.8075 4.41048 20.8083L16.6784 20.8101C17.1589 23.4761 18.9118 24.3354 19.3591 24.5126C19.4928 24.5814 19.6447 24.6066 19.7934 24.5848C19.9395 24.5623 20.0755 24.4968 20.1841 24.3966C20.2928 24.2965 20.3691 24.1663 20.4034 24.0226C20.4781 23.7559 20.4566 23.4398 20.4292 23.0398C20.3855 22.4021 20.3258 21.5288 20.7081 21.1196C20.9011 20.9131 21.2397 20.8083 21.7145 20.8083H23.1289C23.8598 20.8075 24.5605 20.5169 25.0773 20.0002C25.5942 19.4836 25.8849 18.7831 25.8857 18.0525V9.41781C25.8849 8.68711 25.5941 7.98658 25.0772 7.46993C24.5603 6.95328 23.8595 6.66271 23.1285 6.66199ZM24.4557 18.0527C24.4552 18.4044 24.3153 18.7416 24.0665 18.9903C23.8177 19.239 23.4804 19.3789 23.1285 19.3793H21.7141C20.8272 19.3793 20.1372 19.6367 19.6629 20.1443C19.0384 20.8127 18.9503 21.7323 18.9692 22.5071C18.6111 22.1031 18.2485 21.48 18.0822 20.5387C18.0222 20.2112 17.8486 19.9154 17.5919 19.7033C17.3352 19.4913 17.0119 19.3765 16.6789 19.3793H4.41048C4.05864 19.3789 3.72132 19.239 3.47253 18.9903C3.22374 18.7416 3.08378 18.4044 3.08337 18.0527V9.41805C3.08372 9.06629 3.22364 8.72903 3.47244 8.48027C3.72124 8.23152 4.0586 8.09158 4.41048 8.09117H23.1285C23.4804 8.09158 23.8177 8.23148 24.0665 8.48019C24.3153 8.72889 24.4552 9.06609 24.4557 9.41781V18.0527Z" fill="#fff"/>
</svg>
