<svg width="195" height="195" viewBox="0 0 195 195" fill="none" xmlns="http://www.w3.org/2000/svg">
<circle cx="97.5" cy="97.5" r="72.5" fill="#F0F5F8"/>
<path d="M97.2356 84.9083C95.2744 84.9105 93.3942 85.6903 92.0075 87.0766C90.6207 88.4628 89.8406 90.3423 89.8384 92.3028V95.6077C89.8466 97.5635 90.6296 99.4363 92.0159 100.816C93.4023 102.196 95.2791 102.971 97.2355 102.971C99.192 102.971 101.069 102.196 102.455 100.816C103.841 99.4363 104.624 97.5635 104.633 95.6077V92.3028C104.63 90.3424 103.85 88.4628 102.464 87.0766C101.077 85.6903 99.1968 84.9105 97.2356 84.9083ZM103.062 95.6077C103.055 97.1477 102.438 98.6222 101.346 99.7086C100.254 100.795 98.7761 101.405 97.2355 101.405C95.6949 101.405 94.217 100.795 93.1251 99.7086C92.0331 98.6222 91.416 97.1477 91.4087 95.6077V92.3028C91.416 90.7628 92.0331 89.2883 93.1251 88.2019C94.217 87.1155 95.6949 86.5056 97.2355 86.5056C98.7761 86.5056 100.254 87.1155 101.346 88.2019C102.438 89.2883 103.055 90.7628 103.062 92.3028V95.6077Z" fill="#172134"/>
<path d="M84.9609 123.658H109.511C109.719 123.658 109.919 123.575 110.066 123.428C110.213 123.281 110.296 123.081 110.296 122.873V120.353H127.321C127.529 120.353 127.729 120.271 127.876 120.123C128.023 119.976 128.106 119.777 128.106 119.568V113.059C128.105 111.204 127.397 109.419 126.126 108.066C124.856 106.714 123.118 105.896 121.266 105.778C120.847 105.747 120.639 106.002 120.419 106.271C119.954 106.839 119.365 107.293 118.698 107.599C118.031 107.905 117.303 108.055 116.569 108.037C115.835 108.019 115.115 107.834 114.464 107.495C113.813 107.157 113.247 106.675 112.811 106.085C112.736 105.983 112.637 105.901 112.524 105.846C112.411 105.791 112.286 105.763 112.16 105.766C110.831 105.796 109.536 106.192 108.417 106.91C107.7 106.037 106.811 105.321 105.804 104.807C104.798 104.293 103.696 103.993 102.568 103.924C102.158 103.902 101.961 104.143 101.712 104.447C101.17 105.109 100.484 105.639 99.7065 105.996C98.9289 106.352 98.0801 106.527 97.2248 106.506C96.3694 106.485 95.5302 106.269 94.771 105.875C94.0118 105.481 93.3526 104.918 92.8438 104.231C92.7684 104.13 92.67 104.048 92.5568 103.993C92.4436 103.937 92.3188 103.91 92.1928 103.912C90.0496 103.962 88.0115 104.851 86.517 106.387C86.3497 106.558 86.192 106.737 86.0415 106.92C84.9976 106.248 83.7985 105.855 82.5591 105.779C82.1403 105.748 81.9323 106.002 81.7116 106.271C81.2468 106.839 80.6584 107.293 79.9913 107.599C79.3242 107.905 78.596 108.055 77.8623 108.037C77.1285 108.019 76.4085 107.834 75.7572 107.496C75.1058 107.157 74.5404 106.675 74.1039 106.085C74.0287 105.984 73.9304 105.902 73.8171 105.846C73.7038 105.791 73.5788 105.764 73.4527 105.767C71.5501 105.815 69.7416 106.605 68.4129 107.967C67.0842 109.329 66.3403 111.156 66.3398 113.059V119.568C66.3398 119.777 66.4226 119.976 66.5698 120.123C66.7171 120.271 66.9168 120.353 67.125 120.353H84.176V122.873C84.176 123.081 84.2587 123.281 84.4058 123.428C84.553 123.575 84.7527 123.658 84.9609 123.658ZM111.816 107.358C112.415 108.061 113.159 108.627 113.997 109.015C114.835 109.404 115.747 109.606 116.671 109.608C117.595 109.61 118.508 109.412 119.348 109.027C120.188 108.643 120.935 108.081 121.536 107.38C122.917 107.558 124.186 108.233 125.106 109.278C126.026 110.323 126.534 111.667 126.535 113.059V118.784H110.296V112.132C110.296 110.762 109.952 109.413 109.296 108.211C110.056 107.73 110.92 107.437 111.816 107.358ZM91.8471 105.502C92.5204 106.306 93.3616 106.954 94.3117 107.398C95.2618 107.843 96.2977 108.075 97.3469 108.077C98.396 108.079 99.4329 107.852 100.385 107.411C101.337 106.97 102.181 106.327 102.857 105.525C104.474 105.719 105.964 106.498 107.045 107.715C108.126 108.933 108.724 110.503 108.726 112.131V122.088H85.746V112.132C85.7465 110.463 86.3738 108.856 87.5037 107.628C88.6337 106.4 90.1838 105.641 91.847 105.502H91.8471ZM67.9102 118.784V113.059C67.9106 111.632 68.444 110.256 69.4058 109.202C70.3677 108.147 71.6888 107.49 73.1102 107.358C73.7088 108.061 74.4527 108.627 75.2909 109.015C76.129 109.404 77.0414 109.606 77.9652 109.608C78.889 109.61 79.8023 109.412 80.6422 109.027C81.4821 108.643 82.2286 108.081 82.8303 107.38C83.6608 107.485 84.4578 107.773 85.1645 108.221C84.5136 109.422 84.1737 110.766 84.1757 112.132V118.784H67.9102Z" fill="#172134"/>
<path d="M123.148 98.5952V95.7026C123.148 94.8397 122.978 93.9853 122.648 93.1882C122.318 92.391 121.834 91.6667 121.223 91.0566C120.613 90.4465 119.888 89.9625 119.091 89.6323C118.293 89.3021 117.439 89.1322 116.576 89.1322C115.712 89.1322 114.858 89.3021 114.06 89.6323C113.263 89.9625 112.538 90.4465 111.928 91.0566C111.318 91.6667 110.834 92.391 110.503 93.1882C110.173 93.9853 110.003 94.8397 110.003 95.7026V98.5952C110.003 100.338 110.695 102.009 111.928 103.241C113.161 104.473 114.832 105.166 116.576 105.166C118.319 105.166 119.991 104.473 121.223 103.241C122.456 102.009 123.148 100.338 123.148 98.5952ZM111.573 98.5952V95.7026C111.573 94.3763 112.1 93.1044 113.038 92.1666C113.977 91.2288 115.249 90.702 116.576 90.702C117.902 90.702 119.175 91.2288 120.113 92.1666C121.051 93.1044 121.578 94.3763 121.578 95.7026V98.5952C121.576 99.921 121.049 101.192 120.111 102.13C119.173 103.067 117.902 103.594 116.576 103.596C115.249 103.594 113.978 103.067 113.04 102.13C112.102 101.192 111.575 99.921 111.573 98.5952H111.573Z" fill="#172134"/>
<path d="M84.4417 98.5952V95.7026C84.4417 93.96 83.7493 92.2888 82.5166 91.0566C81.284 89.8244 79.6122 89.1322 77.8691 89.1322C76.1259 89.1322 74.4541 89.8244 73.2215 91.0566C71.9889 92.2888 71.2964 93.96 71.2964 95.7026V98.5952C71.2964 100.338 71.9889 102.009 73.2215 103.241C74.4541 104.473 76.1259 105.166 77.8691 105.166C79.6122 105.166 81.284 104.473 82.5166 103.241C83.7493 102.009 84.4417 100.338 84.4417 98.5952ZM72.8667 98.5952V95.7026C72.8667 94.3763 73.3937 93.1044 74.3319 92.1666C75.27 91.2288 76.5424 90.702 77.8691 90.702C79.1958 90.702 80.4681 91.2288 81.4063 92.1666C82.3444 93.1044 82.8714 94.3763 82.8714 95.7026V98.5952C82.8699 99.921 82.3424 101.192 81.4046 102.13C80.4668 103.067 79.1953 103.594 77.8691 103.596C76.5428 103.594 75.2713 103.067 74.3335 102.13C73.3957 101.192 72.8682 99.921 72.8667 98.5952Z" fill="#172134"/>
<path d="M129.184 83.8293V75.6535C129.183 74.851 128.864 74.0816 128.296 73.5141C127.728 72.9467 126.959 72.6275 126.156 72.6266H105.597C104.794 72.6275 104.024 72.9467 103.457 73.5141C102.889 74.0816 102.57 74.851 102.569 75.6535V83.8293C102.57 84.6318 102.889 85.4012 103.457 85.9687C104.024 86.5361 104.794 86.8553 105.597 86.8562L106.509 86.8582C107.037 89.7868 108.963 90.7302 109.453 90.925C109.6 91.0002 109.767 91.0276 109.93 91.0035C110.091 90.9787 110.24 90.9067 110.359 90.7968C110.479 90.6868 110.562 90.5438 110.6 90.3861C110.655 90.1478 110.69 89.9054 110.705 89.6612C110.875 87.8416 111.263 86.8555 112.826 86.8555H126.156C126.959 86.8546 127.728 86.5355 128.296 85.9682C128.863 85.4009 129.183 84.6317 129.184 83.8293ZM127.614 83.8293C127.613 84.2156 127.459 84.586 127.186 84.8592C126.913 85.1323 126.542 85.286 126.156 85.2864H112.825C110.013 85.2864 109.395 87.5325 109.208 88.9068C108.761 88.4751 108.261 87.7468 108.051 86.5598C107.985 86.2001 107.794 85.8752 107.512 85.6423C107.23 85.4093 106.875 85.2833 106.509 85.2864H105.597C105.21 85.286 104.84 85.1323 104.567 84.8592C104.293 84.586 104.14 84.2156 104.139 83.8293V75.6535C104.14 75.2672 104.293 74.8968 104.567 74.6236C104.84 74.3505 105.21 74.1968 105.597 74.1963H126.156C126.542 74.1968 126.913 74.3505 127.186 74.6236C127.459 74.8968 127.613 75.2672 127.614 75.6535V83.8293Z" fill="#FF8E01"/>
<path d="M89.4035 71.3181H68.8444C68.0416 71.319 67.2719 71.6382 66.7043 72.2057C66.1366 72.7731 65.8173 73.5425 65.8164 74.345V83.829C65.8173 84.6315 66.1366 85.4009 66.7043 85.9683C67.2719 86.5358 68.0416 86.855 68.8444 86.8559L82.319 86.8578C82.8467 89.7861 84.772 90.7299 85.2633 90.9245C85.4102 91 85.577 91.0278 85.7404 91.0038C85.9008 90.9791 86.0502 90.9071 86.1695 90.7972C86.2888 90.6872 86.3727 90.5442 86.4104 90.3864C86.4924 90.0934 86.4688 89.7462 86.4387 89.3069C86.3906 88.6064 86.3251 87.6473 86.745 87.1978C86.957 86.971 87.3289 86.8559 87.8504 86.8559H89.4039C90.2067 86.855 90.9764 86.5358 91.544 85.9683C92.1117 85.4009 92.431 84.6315 92.4319 83.829V74.345C92.431 73.5424 92.1116 72.773 91.5439 72.2055C90.9762 71.6381 90.2064 71.3189 89.4035 71.3181ZM90.8612 83.8292C90.8607 84.2155 90.707 84.5859 90.4338 84.8591C90.1605 85.1322 89.79 85.2859 89.4035 85.2864H87.85C86.8759 85.2864 86.1179 85.569 85.597 86.1266C84.9111 86.8607 84.8143 87.8707 84.8351 88.7218C84.4418 88.2781 84.0435 87.5936 83.8609 86.5597C83.795 86.2 83.6043 85.8751 83.3223 85.6422C83.0404 85.4093 82.6852 85.2833 82.3195 85.2864H68.8444C68.4579 85.2859 68.0874 85.1322 67.8141 84.8591C67.5409 84.5859 67.3872 84.2155 67.3867 83.8292V74.3453C67.3871 73.9589 67.5408 73.5885 67.8141 73.3152C68.0873 73.042 68.4579 72.8883 68.8444 72.8879H89.4035C89.79 72.8883 90.1605 73.042 90.4338 73.3152C90.707 73.5883 90.8607 73.9587 90.8612 74.345V83.8292Z" fill="#172134"/>
<circle cx="97.5" cy="97.5" r="97" stroke="#F0F5F8"/>
</svg>
