<svg width="14" height="15" viewBox="0 0 14 15" fill="none" xmlns="http://www.w3.org/2000/svg">
<path opacity="0.5" d="M9.02344 6.52344C8.3724 7.17448 7.57812 7.5 6.64062 7.5C5.72917 7.5 4.94792 7.17448 4.29688 6.52344C3.64583 5.8724 3.32031 5.09115 3.32031 4.17969C3.32031 3.24219 3.64583 2.44792 4.29688 1.79688C4.94792 1.14583 5.72917 0.820312 6.64062 0.820312C7.57812 0.820312 8.3724 1.14583 9.02344 1.79688C9.67448 2.44792 10 3.24219 10 4.17969C10 5.09115 9.67448 5.8724 9.02344 6.52344ZM3.94531 9.53125C4.9349 9.29688 5.83333 9.17969 6.64062 9.17969C7.47396 9.17969 8.38542 9.29688 9.375 9.53125C10.3646 9.76562 11.263 10.1562 12.0703 10.7031C12.9036 11.224 13.3203 11.8229 13.3203 12.5V14.1797H0V12.5C0 11.8229 0.403646 11.224 1.21094 10.7031C2.04427 10.1562 2.95573 9.76562 3.94531 9.53125Z" fill="#172134"/>
</svg>
