<svg width="17" height="15" viewBox="0 0 17 15" fill="none" xmlns="http://www.w3.org/2000/svg">
<path opacity="0.5" d="M15 0.820312C15.4688 0.820312 15.8594 0.989583 16.1719 1.32812C16.5104 1.64062 16.6797 2.03125 16.6797 2.5V12.5C16.6797 12.9688 16.5104 13.3724 16.1719 13.7109C15.8594 14.0234 15.4688 14.1797 15 14.1797H1.67969C1.21094 14.1797 0.807292 14.0234 0.46875 13.7109C0.15625 13.3724 0 12.9688 0 12.5V2.5C0 2.03125 0.15625 1.64062 0.46875 1.32812C0.807292 0.989583 1.21094 0.820312 1.67969 0.820312H15ZM15 4.17969V2.5L8.32031 6.67969L1.67969 2.5V4.17969L8.32031 8.32031L15 4.17969Z" fill="#172134"/>
</svg>
