<svg width="14" height="18" viewBox="0 0 14 18" fill="none" xmlns="http://www.w3.org/2000/svg">
<path opacity="0.5" d="M11.6797 6.17969C12.1224 6.17969 12.5 6.34896 12.8125 6.6875C13.151 7 13.3203 7.3776 13.3203 7.82031V16.1797C13.3203 16.6224 13.151 17 12.8125 17.3125C12.5 17.651 12.1224 17.8203 11.6797 17.8203H1.67969C1.21094 17.8203 0.807292 17.651 0.46875 17.3125C0.15625 17 0 16.6224 0 16.1797V7.82031C0 7.3776 0.15625 7 0.46875 6.6875C0.807292 6.34896 1.21094 6.17969 1.67969 6.17969H2.5V4.5C2.5 3.35417 2.90365 2.3776 3.71094 1.57031C4.54427 0.736979 5.53385 0.320312 6.67969 0.320312C7.82552 0.320312 8.80208 0.736979 9.60938 1.57031C10.4167 2.3776 10.8203 3.35417 10.8203 4.5V6.17969H11.6797ZM5.46875 13.2109C5.80729 13.5234 6.19792 13.6797 6.64062 13.6797C7.10938 13.6797 7.5 13.5234 7.8125 13.2109C8.15104 12.8724 8.32031 12.4688 8.32031 12C8.32031 11.5312 8.15104 11.1406 7.8125 10.8281C7.5 10.4896 7.10938 10.3203 6.64062 10.3203C6.19792 10.3203 5.80729 10.4896 5.46875 10.8281C5.15625 11.1406 5 11.5312 5 12C5 12.4688 5.15625 12.8724 5.46875 13.2109ZM9.25781 6.17969V4.5C9.25781 3.79688 8.9974 3.19792 8.47656 2.70312C7.98177 2.18229 7.36979 1.92188 6.64062 1.92188C5.9375 1.92188 5.33854 2.18229 4.84375 2.70312C4.34896 3.19792 4.10156 3.79688 4.10156 4.5V6.17969H9.25781Z" fill="#172134"/>
</svg>
