<svg width="22" height="22" viewBox="0 0 22 22" fill="none" xmlns="http://www.w3.org/2000/svg">
<g opacity="0.5" clip-path="url(#clip0)">
<path d="M10.9829 0C7.41463 0 4.51172 2.90291 4.51172 6.47116V15.5288C4.51172 19.0971 7.41463 22 10.9829 22C14.5511 22 17.454 19.0971 17.454 15.5288V6.47116C17.454 2.90291 14.5511 0 10.9829 0ZM16.1341 15.5288C16.1341 18.3691 13.8232 20.6801 10.9829 20.6801C8.14258 20.6801 5.83167 18.3691 5.83167 15.5288V6.47116C5.83167 3.63086 8.14258 1.31995 10.9829 1.31995C13.8232 1.31995 16.1341 3.63086 16.1341 6.47116V15.5288Z" fill="white"/>
<path d="M10.9832 4.37646C10.6187 4.37646 10.3232 4.67187 10.3232 5.03644V8.07413C10.3232 8.43852 10.6187 8.7341 10.9832 8.7341C11.3476 8.7341 11.6432 8.43852 11.6432 8.07413V5.03644C11.6432 4.67187 11.3478 4.37646 10.9832 4.37646Z" fill="white"/>
</g>
<defs>
<clipPath id="clip0">
<rect width="22" height="22" fill="white"/>
</clipPath>
</defs>
</svg>
