<svg width="14" height="14" viewBox="0 0 14 14" fill="none" xmlns="http://www.w3.org/2000/svg">
<path d="M12.9375 8.40625C13.2083 8.92708 13.3438 9.46875 13.3438 10.0312C13.3438 11.0312 12.9792 11.8854 12.25 12.5938C11.5417 13.3021 10.6771 13.6562 9.65625 13.6562C9.03125 13.6562 8.44792 13.5208 7.90625 13.25C7.51042 13.3125 7.125 13.3438 6.75 13.3438C4.97917 13.3438 3.46875 12.7292 2.21875 11.5C0.989583 10.2708 0.375 8.79167 0.375 7.0625C0.375 6.64583 0.416667 6.22917 0.5 5.8125C0.166667 5.25 0 4.63542 0 3.96875C0 2.96875 0.354167 2.11458 1.0625 1.40625C1.79167 0.697917 2.66667 0.34375 3.6875 0.34375C4.39583 0.34375 5.05208 0.53125 5.65625 0.90625C6.01042 0.84375 6.375 0.8125 6.75 0.8125C8.5 0.8125 9.98958 1.42708 11.2188 2.65625C12.4688 3.86458 13.0938 5.33333 13.0938 7.0625C13.0938 7.52083 13.0417 7.96875 12.9375 8.40625ZM8.65625 11C9.21875 10.7708 9.64583 10.4583 9.9375 10.0625C10.25 9.64583 10.4062 9.17708 10.4062 8.65625C10.4062 8.21875 10.3125 7.85417 10.125 7.5625C9.95833 7.25 9.71875 7 9.40625 6.8125C9.11458 6.60417 8.76042 6.4375 8.34375 6.3125C7.90625 6.1875 7.4375 6.0625 6.9375 5.9375C6.52083 5.85417 6.21875 5.78125 6.03125 5.71875C5.86458 5.67708 5.69792 5.61458 5.53125 5.53125C5.36458 5.44792 5.23958 5.35417 5.15625 5.25C5.07292 5.14583 5.03125 5.02083 5.03125 4.875C5.03125 4.64583 5.15625 4.44792 5.40625 4.28125C5.69792 4.11458 6.07292 4.03125 6.53125 4.03125C7.01042 4.03125 7.36458 4.10417 7.59375 4.25C7.80208 4.41667 7.98958 4.65625 8.15625 4.96875C8.28125 5.19792 8.40625 5.36458 8.53125 5.46875C8.65625 5.57292 8.84375 5.625 9.09375 5.625C9.34375 5.625 9.55208 5.54167 9.71875 5.375C9.90625 5.1875 10 4.97917 10 4.75C10 4.52083 9.92708 4.29167 9.78125 4.0625C9.65625 3.8125 9.44792 3.58333 9.15625 3.375C8.88542 3.14583 8.54167 2.96875 8.125 2.84375C7.70833 2.69792 7.21875 2.625 6.65625 2.625C5.92708 2.625 5.30208 2.72917 4.78125 2.9375C4.23958 3.125 3.82292 3.40625 3.53125 3.78125C3.26042 4.15625 3.125 4.57292 3.125 5.03125C3.125 5.53125 3.26042 5.95833 3.53125 6.3125C3.80208 6.64583 4.16667 6.90625 4.625 7.09375C5.0625 7.28125 5.61458 7.44792 6.28125 7.59375C6.76042 7.67708 7.14583 7.77083 7.4375 7.875C7.72917 7.95833 7.95833 8.07292 8.125 8.21875C8.29167 8.38542 8.375 8.59375 8.375 8.84375C8.375 9.13542 8.21875 9.39583 7.90625 9.625C7.57292 9.83333 7.14583 9.9375 6.625 9.9375C6.25 9.9375 5.9375 9.88542 5.6875 9.78125C5.45833 9.67708 5.28125 9.54167 5.15625 9.375C5.03125 9.20833 4.91667 8.98958 4.8125 8.71875C4.70833 8.48958 4.58333 8.3125 4.4375 8.1875C4.27083 8.0625 4.08333 8 3.875 8C3.60417 8 3.375 8.08333 3.1875 8.25C3.02083 8.41667 2.9375 8.61458 2.9375 8.84375C2.9375 9.21875 3.07292 9.59375 3.34375 9.96875C3.61458 10.3438 3.96875 10.6458 4.40625 10.875C4.98958 11.1875 5.73958 11.3438 6.65625 11.3438C7.42708 11.3438 8.09375 11.2292 8.65625 11Z" fill="white"/>
</svg>
