<svg width="14" height="10" viewBox="0 0 14 10" fill="none" xmlns="http://www.w3.org/2000/svg">
<path d="M13.5156 2.34375C13.6198 3.07292 13.6719 3.79167 13.6719 4.5V5.5L13.5156 7.65625C13.4323 8.26042 13.2552 8.69792 12.9844 8.96875C12.6927 9.26042 12.2552 9.44792 11.6719 9.53125C11.1094 9.57292 10.4323 9.60417 9.64062 9.625C8.86979 9.64583 8.23438 9.65625 7.73438 9.65625H6.98438C4.67188 9.63542 3.16146 9.59375 2.45312 9.53125C2.45312 9.53125 2.36979 9.52083 2.20312 9.5C2.03646 9.47917 1.90104 9.45833 1.79688 9.4375C1.69271 9.41667 1.55729 9.36458 1.39062 9.28125C1.24479 9.19792 1.10938 9.09375 0.984375 8.96875C0.880208 8.84375 0.776042 8.67708 0.671875 8.46875C0.588542 8.23958 0.536458 8.04167 0.515625 7.875L0.453125 7.65625C0.369792 6.92708 0.328125 6.20833 0.328125 5.5V4.5L0.453125 2.34375C0.536458 1.73958 0.713542 1.30208 0.984375 1.03125C1.27604 0.71875 1.72396 0.53125 2.32812 0.46875C2.89062 0.427083 3.55729 0.395833 4.32812 0.375C5.09896 0.354167 5.73438 0.34375 6.23438 0.34375H6.98438C8.85938 0.34375 10.4219 0.385417 11.6719 0.46875C12.2552 0.53125 12.6927 0.71875 12.9844 1.03125C13.0677 1.11458 13.1406 1.21875 13.2031 1.34375C13.2656 1.44792 13.3177 1.5625 13.3594 1.6875C13.401 1.79167 13.4323 1.89583 13.4531 2C13.474 2.10417 13.4948 2.1875 13.5156 2.25V2.34375ZM8.79688 5.09375L9.23438 4.875L5.64062 3V6.75L8.79688 5.09375Z" fill="white"/>
</svg>
