<svg width="10" height="11" viewBox="0 0 10 11" fill="none" xmlns="http://www.w3.org/2000/svg">
<path d="M6.76758 4.85571C6.2793 5.34399 5.68359 5.58813 4.98047 5.58813C4.29688 5.58813 3.71094 5.34399 3.22266 4.85571C2.73438 4.36743 2.49023 3.78149 2.49023 3.0979C2.49023 2.39478 2.73438 1.79907 3.22266 1.31079C3.71094 0.82251 4.29688 0.578369 4.98047 0.578369C5.68359 0.578369 6.2793 0.82251 6.76758 1.31079C7.25586 1.79907 7.5 2.39478 7.5 3.0979C7.5 3.78149 7.25586 4.36743 6.76758 4.85571ZM2.95898 7.11157C3.70117 6.93579 4.375 6.8479 4.98047 6.8479C5.60547 6.8479 6.28906 6.93579 7.03125 7.11157C7.77344 7.28735 8.44727 7.58032 9.05273 7.99048C9.67773 8.3811 9.99023 8.83032 9.99023 9.33813V10.5979H0V9.33813C0 8.83032 0.302734 8.3811 0.908203 7.99048C1.5332 7.58032 2.2168 7.28735 2.95898 7.11157Z" fill="white"/>
</svg>
